<?xml version="1.0" encoding="UTF-8" standalone="no"?>
<svg
   width="31.928057"
   height="32"
   viewBox="0 0 31.928056 32"
   version="1.1"
   xml:space="preserve"
   style="clip-rule:evenodd;fill-rule:evenodd;stroke-linecap:round;stroke-linejoin:round"
   id="svg19"
   sodipodi:docname="caddy.svg"
   inkscape:version="1.3.2 (091e20e, 2023-11-25)"
   xmlns:inkscape="http://www.inkscape.org/namespaces/inkscape"
   xmlns:sodipodi="http://sodipodi.sourceforge.net/DTD/sodipodi-0.dtd"
   xmlns="http://www.w3.org/2000/svg"
   xmlns:svg="http://www.w3.org/2000/svg"><defs
   id="defs19">
        
    
            
        
                
                
            
                    
                    
                </defs><sodipodi:namedview
   id="namedview19"
   pagecolor="#505050"
   bordercolor="#ffffff"
   borderopacity="1"
   inkscape:showpageshadow="0"
   inkscape:pageopacity="0"
   inkscape:pagecheckerboard="1"
   inkscape:deskcolor="#505050"
   inkscape:zoom="2.0448549"
   inkscape:cx="40.834193"
   inkscape:cy="48.169677"
   inkscape:window-width="1392"
   inkscape:window-height="950"
   inkscape:window-x="0"
   inkscape:window-y="25"
   inkscape:window-maximized="0"
   inkscape:current-layer="svg19" />
    <g
   id="Icon"
   transform="matrix(0.32994506,0,0,0.3441494,-1296.2436,-595.1006)">
                        <g
   id="g3">
                            <g
   transform="matrix(-0.191794,-0.715786,0.715786,-0.191794,4329.14,4673.64)"
   id="g1">
                                <path
   d="m 3901.56,610.734 c -8.03,-0.473 -15.5,-2.634 -22.36,-5.857 -6.96,-3.269 -13.16,-7.784 -18.4,-13.244 -2.09,-2.176 -4.04,-4.484 -5.83,-6.924 -1.77,-2.428 -3.4,-4.976 -4.84,-7.643 -4.24,-7.842 -6.92,-16.685 -7.24,-26.198 -0.32,-7.547 0.75,-14.813 3.05,-21.561 2.43,-7.104 6.14,-13.611 10.89,-19.258 l -1.04,-0.954 c -5.4,5.445 -9.77,11.886 -12.89,19.03 -3.06,7 -4.87,14.656 -5.22,22.743 -0.34,10.523 1.83,20.557 6.11,29.438 1.48,3.074 3.24,5.998 5.22,8.743 2,2.757 4.23,5.341 6.68,7.693 6.06,5.826 13.31,10.448 21.34,13.358 7.63,2.767 15.93,3.959 24.53,3.452 z"
   style="fill:#1f88c0"
   id="path1" />
                            </g>
                            <g
   transform="matrix(-0.191794,-0.715786,0.715786,-0.191794,4329.14,4673.64)"
   id="g2">
                                <path
   d="m 3875.69,496.573 c 3.93,-2.035 8.11,-3.676 12.51,-4.787 4.29,-1.082 8.76,-1.662 13.36,-1.754 2.26,0.098 4.47,0.3 6.65,0.656 8.92,1.459 16.98,5.126 24.1,9.995 3.82,2.611 7.28,5.652 10.5,8.936 4.28,4.361 8.08,9.197 11.04,14.613 4.35,7.965 7.11,16.954 7.47,26.636 0.29,7.88 -0.86,15.477 -3.44,22.454 -1.79,4.847 -4.18,9.431 -7.22,13.516 -3.44,4.623 -7.7,8.589 -12.39,11.931 -4.61,3.286 -9.74,5.85 -15.18,7.709 -0.72,0.243 -1.49,0.327 -2.16,0.689 -0.51,0.281 -0.79,0.687 -1.24,1.057 l 0.68,2.165 c 0.61,0.043 1.1,0.184 1.7,0.085 0.79,-0.13 1.48,-0.591 2.21,-0.908 7.71,-3.35 14.54,-8.211 20.29,-14.138 2.45,-2.525 4.68,-5.254 6.74,-8.109 2.28,-3.151 4.35,-6.466 6.12,-9.971 4.04,-8.008 6.58,-16.926 6.93,-26.48 0.38,-10.357 -1.7,-20.24 -5.88,-29 -2.91,-6.093 -6.76,-11.705 -11.53,-16.39 -3.58,-3.516 -7.69,-6.488 -12.11,-8.916 -7.96,-4.37 -16.97,-6.802 -26.47,-7.333 -2.25,-0.125 -4.51,-0.175 -6.81,-0.075 -4.69,-0.094 -9.26,0.365 -13.67,1.243 -4.59,0.912 -9,2.286 -13.18,4.128 z"
   style="fill:#1f88c0"
   id="path2" />
                            </g>
                        </g>
                        <g
   id="g6">
                            <g
   transform="matrix(-3.37109,-0.514565,0.514565,-3.37109,4078.07,1806.88)"
   id="g4">
                                <path
   d="m 22,12 c 0,-1.097 -0.903,-2 -2,-2 -0.579,0 -1.103,0.251 -1.47,0.649 C 18.202,11.006 18,11.481 18,12 c 0,1.097 0.903,2 2,2 1.097,0 2,-0.903 2,-2 z"
   style="fill:none;fill-rule:nonzero;stroke:#1f88c0;stroke-width:1.05px"
   id="path3" />
                            </g>
                            <g
   transform="matrix(-5.33921,-5.26159,-3.12106,-6.96393,4073.87,1861.55)"
   id="g5">
                                <path
   d="m 10.315,5.333 c 0,0 -0.567,0.588 -1.285,1.34 C 7.768,7.995 6.054,9.805 6.054,9.805 L 6.237,9.86 c 0,0 1.808,-1.783 3.123,-3.089 0.747,-0.743 1.329,-1.327 1.329,-1.327 z"
   style="fill:#1f88c0"
   id="path4" />
                            </g>
                        </g>
                        <g
   id="Padlock"
   transform="matrix(3.11426,0,0,3.11426,3938.31,1737.25)">
                            <g
   id="g7">
                                <path
   d="m 9.876,21 h 8.286 C 18.625,21 19,20.625 19,20.162 V 11.838 C 19,11.375 18.625,11 18.162,11 H 5.838 C 5.375,11 5,11.375 5,11.838 v 4.92"
   style="fill:none;stroke:#22b638;stroke-width:1.89px;stroke-linecap:butt;stroke-linejoin:miter"
   id="path6" />
                                <path
   d="M 8,11 V 7 c 0,-2.194 1.806,-4 4,-4 2.194,0 4,1.806 4,4 v 4"
   style="fill:none;fill-rule:nonzero;stroke:#22b638;stroke-width:1.89px"
   id="path7" />
                            </g>
                        </g>
                        <g
   id="g10">
                            <g
   transform="matrix(5.30977,0.697415,-0.697415,5.30977,3852.72,1727.97)"
   id="g8">
                                <path
   d="M 22,12 C 22,11.659 21.913,11.337 21.76,11.055 21.421,10.429 20.756,10 20,10 c -1.097,0 -2,0.903 -2,2 0,1.097 0.903,2 2,2 1.097,0 2,-0.903 2,-2 z"
   style="fill:none;fill-rule:nonzero;stroke:#1f88c0;stroke-width:0.98px"
   id="path8" />
                            </g>
                            <g
   transform="matrix(4.93114,2.49604,1.11018,5.44847,3921.41,1726.72)"
   id="g9">
                                <path
   d="m 8.902,6.77 c 0,0 -1.667,1.483 -2.875,2.596 -0.684,0.63 -1.208,1.136 -1.208,1.136 l 0.701,0.662 c 0,0 0.501,-0.527 1.126,-1.213 C 7.749,8.739 9.219,7.068 9.219,7.068 Z"
   style="fill:#1f88c0"
   id="path9" />
                            </g>
                        </g>
                    </g>
</svg>
