<?xml version="1.0" encoding="UTF-8" standalone="no"?>
<svg
   width="32"
   height="32"
   version="1.1"
   id="svg5"
   sodipodi:docname="electronjs.svg"
   inkscape:version="1.3.2 (091e20e, 2023-11-25)"
   xmlns:inkscape="http://www.inkscape.org/namespaces/inkscape"
   xmlns:sodipodi="http://sodipodi.sourceforge.net/DTD/sodipodi-0.dtd"
   xmlns="http://www.w3.org/2000/svg"
   xmlns:svg="http://www.w3.org/2000/svg">
  <defs
     id="defs5" />
  <sodipodi:namedview
     id="namedview5"
     pagecolor="#505050"
     bordercolor="#ffffff"
     borderopacity="1"
     inkscape:showpageshadow="0"
     inkscape:pageopacity="0"
     inkscape:pagecheckerboard="1"
     inkscape:deskcolor="#505050"
     inkscape:zoom="3.0273438"
     inkscape:cx="128"
     inkscape:cy="128"
     inkscape:window-width="1392"
     inkscape:window-height="950"
     inkscape:window-x="0"
     inkscape:window-y="25"
     inkscape:window-maximized="0"
     inkscape:current-layer="svg5" />
  <g
     fill="none"
     fill-rule="evenodd"
     id="g5"
     transform="scale(0.125)">
    <circle
       fill="#2b2e3a"
       cx="128"
       cy="128"
       r="128"
       id="circle1" />
    <g
       fill="#9feaf9"
       fill-rule="nonzero"
       id="g4">
      <path
         d="M 100.502,71.69 C 74.497,66.954 53.935,71.911 45.74,86.105 c -6.115,10.592 -4.367,24.635 4.24,39.646 a 2.667,2.667 0 1 0 4.626,-2.653 C 46.854,109.576 45.345,97.457 50.359,88.772 57.167,76.981 75.507,72.559 99.546,76.937 a 2.667,2.667 0 0 0 0.956,-5.247 z m -36.999,72.307 c 10.515,11.555 24.176,22.394 39.756,31.388 37.723,21.78 77.883,27.601 97.675,14.106 a 2.667,2.667 0 1 0 -3.005,-4.406 c -17.714,12.078 -55.862,6.548 -92.003,-14.318 -15.114,-8.726 -28.343,-19.222 -38.478,-30.36 a 2.667,2.667 0 1 0 -3.945,3.59 z"
         id="path1" />
      <path
         d="M 194.62,140.753 C 211.648,120.637 217.593,100.405 209.415,86.241 203.398,75.818 190.677,70.315 173.77,70.095 a 2.667,2.667 0 0 0 -0.069,5.333 c 15.205,0.198 26.165,4.939 31.096,13.48 6.792,11.765 1.49,29.807 -14.248,48.399 a 2.667,2.667 0 1 0 4.071,3.446 z M 150.859,72.578 c -15.396,3.299 -31.784,9.749 -47.522,18.835 -38.942,22.483 -64.345,55.636 -60.817,79.675 a 2.667,2.667 0 1 0 5.277,-0.775 c -3.133,-21.344 20.947,-52.769 58.207,-74.281 15.267,-8.815 31.135,-15.06 45.972,-18.239 a 2.667,2.667 0 1 0 -1.117,-5.215 z"
         id="path2" />
      <path
         d="m 87.77,187.753 c 8.904,24.86 23.469,40.167 39.847,40.167 11.945,0 22.996,-8.143 31.614,-22.478 a 2.667,2.667 0 1 0 -4.571,-2.748 c -7.745,12.883 -17.258,19.892 -27.043,19.892 -13.605,0 -26.596,-13.652 -34.825,-36.63 a 2.667,2.667 0 1 0 -5.021,1.797 z m 81.322,-4.863 c 4.61,-14.728 7.085,-31.718 7.085,-49.423 0,-44.179 -15.463,-82.263 -37.487,-92.042 a 2.667,2.667 0 0 0 -2.164,4.874 c 19.643,8.723 34.317,44.866 34.317,87.168 0,17.177 -2.397,33.63 -6.84,47.83 a 2.667,2.667 0 1 0 5.09,1.593 z m 50.224,-2.612 c 0,-7.049 -5.714,-12.763 -12.763,-12.763 -7.049,0 -12.763,5.714 -12.763,12.763 0,7.049 5.714,12.763 12.763,12.763 7.049,0 12.763,-5.714 12.763,-12.763 z m -5.333,0 a 7.43,7.43 0 1 1 -14.86,0 7.43,7.43 0 0 1 14.86,0 z M 48.497,193.041 c 7.05,0 12.764,-5.714 12.764,-12.763 0,-7.049 -5.715,-12.763 -12.764,-12.763 -7.048,0 -12.763,5.714 -12.763,12.763 0,7.049 5.715,12.763 12.763,12.763 z m 0,-5.333 a 7.43,7.43 0 1 1 0,-14.86 7.43,7.43 0 0 1 0,14.86 z"
         id="path3" />
      <path
         d="m 127.617,54.444 c 7.049,0 12.763,-5.714 12.763,-12.763 0,-7.049 -5.714,-12.763 -12.763,-12.763 -7.049,0 -12.763,5.714 -12.763,12.763 0,7.049 5.714,12.763 12.763,12.763 z m 0,-5.333 a 7.43,7.43 0 1 1 0,-14.86 7.43,7.43 0 0 1 0,14.86 z m 1.949,93.382 c -4.985,1.077 -9.896,-2.091 -10.975,-7.076 a 9.236,9.236 0 0 1 7.076,-10.976 c 4.985,-1.077 9.896,2.091 10.976,7.076 1.077,4.985 -2.091,9.897 -7.077,10.976 z"
         id="path4" />
    </g>
  </g>
</svg>
