<?xml version="1.0" encoding="UTF-8" standalone="no"?>
<svg
   height="28"
   viewBox="0 0 31.999998 28"
   width="32"
   version="1.1"
   id="svg2"
   sodipodi:docname="ESLint.svg"
   inkscape:version="1.3.2 (091e20e, 2023-11-25)"
   xmlns:inkscape="http://www.inkscape.org/namespaces/inkscape"
   xmlns:sodipodi="http://sodipodi.sourceforge.net/DTD/sodipodi-0.dtd"
   xmlns="http://www.w3.org/2000/svg"
   xmlns:svg="http://www.w3.org/2000/svg">
  <defs
     id="defs2" />
  <sodipodi:namedview
     id="namedview2"
     pagecolor="#505050"
     bordercolor="#ffffff"
     borderopacity="1"
     inkscape:showpageshadow="0"
     inkscape:pageopacity="0"
     inkscape:pagecheckerboard="1"
     inkscape:deskcolor="#505050"
     inkscape:zoom="2.3919773"
     inkscape:cx="159.90954"
     inkscape:cy="140.26053"
     inkscape:window-width="1392"
     inkscape:window-height="950"
     inkscape:window-x="0"
     inkscape:window-y="25"
     inkscape:window-maximized="0"
     inkscape:current-layer="svg2" />
  <g
     transform="matrix(0.1254894,0,0,0.125,-2.4986822,-2.186375)"
     id="g2">
    <path
       d="m 97.021,99.016 48.432,-27.962 c 1.212,-0.7 2.706,-0.7 3.918,0 l 48.433,27.962 c 1.211,0.7 1.959,1.993 1.959,3.393 v 55.924 c 0,1.399 -0.748,2.693 -1.959,3.394 l -48.433,27.962 c -1.212,0.7 -2.706,0.7 -3.918,0 L 97.021,161.727 c -1.212,-0.7 -1.959,-1.994 -1.959,-3.394 v -55.924 c 0.001,-1.4 0.748,-2.693 1.959,-3.393"
       fill="#8080f2"
       id="path1" />
    <path
       d="M 273.336,124.488 215.469,23.816 c -2.102,-3.64 -5.985,-6.325 -10.188,-6.325 H 89.545 c -4.204,0 -8.088,2.685 -10.19,6.325 l -57.867,100.45 c -2.102,3.641 -2.102,8.236 0,11.877 l 57.867,99.847 c 2.102,3.64 5.986,5.501 10.19,5.501 H 205.28 c 4.203,0 8.087,-1.805 10.188,-5.446 l 57.867,-100.01 c 2.104,-3.639 2.104,-7.907 0.001,-11.547 m -47.917,48.41 c 0,1.48 -0.891,2.849 -2.174,3.59 l -73.71,42.527 c -1.282,0.74 -2.888,0.74 -4.17,0 L 71.598,176.488 c -1.282,-0.741 -2.179,-2.109 -2.179,-3.59 V 87.843 c 0,-1.481 0.884,-2.849 2.167,-3.59 l 73.707,-42.527 c 1.282,-0.741 2.886,-0.741 4.168,0 l 73.772,42.527 c 1.283,0.741 2.186,2.109 2.186,3.59 z"
       fill="#4b32c3"
       id="path2" />
  </g>
</svg>
