<?xml version="1.0" encoding="UTF-8" standalone="no"?>
<svg
   viewBox="0 0 32 32"
   version="1.1"
   id="svg2"
   sodipodi:docname="github-actions.svg"
   inkscape:version="1.3.2 (091e20e, 2023-11-25)"
   width="32"
   height="32"
   xmlns:inkscape="http://www.inkscape.org/namespaces/inkscape"
   xmlns:sodipodi="http://sodipodi.sourceforge.net/DTD/sodipodi-0.dtd"
   xmlns="http://www.w3.org/2000/svg"
   xmlns:svg="http://www.w3.org/2000/svg">
  <defs
     id="defs2" />
  <sodipodi:namedview
     id="namedview2"
     pagecolor="#505050"
     bordercolor="#ffffff"
     borderopacity="1"
     inkscape:showpageshadow="0"
     inkscape:pageopacity="0"
     inkscape:pagecheckerboard="1"
     inkscape:deskcolor="#505050"
     inkscape:zoom="4.5497338"
     inkscape:cx="39.452858"
     inkscape:cy="62.091545"
     inkscape:window-width="1392"
     inkscape:window-height="950"
     inkscape:window-x="0"
     inkscape:window-y="25"
     inkscape:window-maximized="0"
     inkscape:current-layer="svg2" />
  <g
     id="g2"
     transform="scale(0.25)">
    <path
       fill="#2088ff"
       d="M 26.666,0 C 11.97,0 0,11.97 0,26.666 c 0,12.87 9.181,23.651 21.334,26.13 v 37.87 c 0,11.77 9.68,21.334 21.332,21.334 h 0.195 c 1.302,9.023 9.1,16 18.473,16 C 71.612,128 80,119.612 80,109.334 80,99.056 71.612,90.666 61.334,90.666 c -9.372,0 -17.17,6.977 -18.473,16 h -0.195 c -8.737,0 -16,-7.152 -16,-16 V 63.779 a 18.514,18.514 0 0 0 13.24,5.555 h 2.955 c 1.303,9.023 9.1,16 18.473,16 9.372,0 17.169,-6.977 18.47,-16 h 11.057 c 1.303,9.023 9.1,16 18.473,16 C 119.612,85.334 128,76.944 128,66.666 128,56.388 119.612,48 109.334,48 99.961,48 92.163,54.977 90.861,64 H 79.805 C 78.504,54.977 70.707,48 61.334,48 51.961,48 44.163,54.977 42.861,64 H 39.906 C 33.473,64 28.113,59.411 26.918,53.328 41.498,53.192 53.334,41.278 53.334,26.666 53.334,11.97 41.362,0 26.666,0 Z m 0,5.334 A 21.292,21.292 0 0 1 48,26.666 21.294,21.294 0 0 1 26.666,48 21.292,21.292 0 0 1 5.334,26.666 21.29,21.29 0 0 1 26.666,5.334 Z m -5.215,7.541 C 18.67,12.889 16,15.123 16,18.166 v 17.043 c 0,4.043 4.709,6.663 8.145,4.533 l 13.634,-8.455 c 3.257,-2.02 3.274,-7.002 0.032,-9.045 l -13.635,-8.59 a 5.024,5.024 0 0 0 -2.725,-0.777 z m -0.117,5.291 13.635,8.588 -13.635,8.455 z m 40,35.168 A 13.29,13.29 0 0 1 74.666,66.666 13.293,13.293 0 0 1 61.334,80 13.294,13.294 0 0 1 48,66.666 13.293,13.293 0 0 1 61.334,53.334 Z m 48,0 A 13.29,13.29 0 0 1 122.666,66.666 13.293,13.293 0 0 1 109.334,80 13.294,13.294 0 0 1 96,66.666 13.293,13.293 0 0 1 109.334,53.334 Z m -42.568,6.951 a 2.667,2.667 0 0 0 -1.887,0.78 l -6.3,6.294 -2.093,-2.084 a 2.667,2.667 0 0 0 -3.771,0.006 2.667,2.667 0 0 0 0.008,3.772 l 3.974,3.96 a 2.667,2.667 0 0 0 3.766,-0.001 l 8.185,-8.174 a 2.667,2.667 0 0 0 0.002,-3.772 2.667,2.667 0 0 0 -1.884,-0.78 z m 48,0 a 2.667,2.667 0 0 0 -1.887,0.78 l -6.3,6.294 -2.093,-2.084 a 2.667,2.667 0 0 0 -3.771,0.006 2.667,2.667 0 0 0 0.008,3.772 l 3.974,3.96 a 2.667,2.667 0 0 0 3.766,-0.001 l 8.185,-8.174 a 2.667,2.667 0 0 0 0.002,-3.772 2.667,2.667 0 0 0 -1.884,-0.78 z M 61.334,96 A 13.293,13.293 0 0 1 74.666,109.334 13.29,13.29 0 0 1 61.334,122.666 13.293,13.293 0 0 1 48,109.334 13.294,13.294 0 0 1 61.334,96 Z M 56,105.334 c -2.193,0 -4,1.807 -4,4 0,2.195 1.808,4 4,4 2.192,0 4,-1.805 4,-4 0,-2.193 -1.807,-4 -4,-4 z m 10.666,0 c -2.193,0 -4,1.807 -4,4 0,2.195 1.808,4 4,4 2.192,0 4,-1.805 4,-4 0,-2.193 -1.807,-4 -4,-4 z M 56,108 c 0.75,0 1.334,0.585 1.334,1.334 0,0.753 -0.583,1.332 -1.334,1.332 -0.75,0 -1.334,-0.58 -1.334,-1.332 0,-0.75 0.585,-1.334 1.334,-1.334 z m 10.666,0 c 0.75,0 1.334,0.585 1.334,1.334 0,0.753 -0.583,1.332 -1.334,1.332 -0.75,0 -1.332,-0.58 -1.332,-1.332 0,-0.75 0.583,-1.334 1.332,-1.334 z"
       id="path1" />
    <path
       fill="#79b8ff"
       d="m 109.334,90.666 c -9.383,0 -17.188,6.993 -18.477,16.031 a 2.667,2.667 0 0 0 -0.265,-0.011 l -2.7,0.09 a 2.667,2.667 0 0 0 -2.578,2.751 2.667,2.667 0 0 0 2.752,2.578 l 2.7,-0.087 a 2.667,2.667 0 0 0 0.097,-0.006 C 92.17,121.029 99.965,128 109.334,128 119.612,128 128,119.612 128,109.334 128,99.056 119.612,90.666 109.334,90.666 Z m 0,5.334 a 13.293,13.293 0 0 1 13.332,13.334 13.29,13.29 0 0 1 -13.332,13.332 A 13.293,13.293 0 0 1 96,109.334 13.294,13.294 0 0 1 109.334,96 Z"
       id="path2" />
  </g>
</svg>
