<?xml version="1.0" encoding="UTF-8" standalone="no"?>
<!-- Uploaded to: SVG Repo, www.svgrepo.com, Generator: SVG Repo Mixer Tools -->

<svg
   width="128"
   height="16"
   viewBox="0 0 163.84 20.48"
   version="1.1"
   id="svg1"
   sodipodi:docname="hetzner.svg"
   inkscape:version="1.3.2 (091e20e, 2023-11-25)"
   xmlns:inkscape="http://www.inkscape.org/namespaces/inkscape"
   xmlns:sodipodi="http://sodipodi.sourceforge.net/DTD/sodipodi-0.dtd"
   xmlns="http://www.w3.org/2000/svg"
   xmlns:svg="http://www.w3.org/2000/svg">
  <defs
     id="defs1" />
  <sodipodi:namedview
     id="namedview1"
     pagecolor="#505050"
     bordercolor="#ffffff"
     borderopacity="1"
     inkscape:showpageshadow="0"
     inkscape:pageopacity="0"
     inkscape:pagecheckerboard="1"
     inkscape:deskcolor="#505050"
     inkscape:zoom="0.96875"
     inkscape:cx="396.90323"
     inkscape:cy="396.90323"
     inkscape:window-width="1392"
     inkscape:window-height="950"
     inkscape:window-x="0"
     inkscape:window-y="25"
     inkscape:window-maximized="0"
     inkscape:current-layer="svg1" />
  <path
     d="m 157.16093,12.99455 c 1.47967,-0.27175 2.88657,-0.889365 4.09942,-1.828135 1.09157,-1.1858101 1.64948,-2.7669001 1.52819,-4.3973901 0,-1.3093399 -0.36385,-2.6186749 -1.01879,-3.7303749 -0.99454,-1.729315 -2.78955,-2.841015 -4.77862,-2.93983 h -0.99454 l -2.30441,-0.074115 h -10.4305 c -0.63068,0 -0.89751,0.27175 -0.89751,0.914065 v 18.60246 c 0,0.642315 0.26683,0.914065 0.89751,0.914065 h 2.71678 c 0.63068,0 0.89751,-0.27175 0.89751,-0.914065 v -6.15141 h 3.3232 c 0.72771,0.0494 1.43117,0.34586 1.96482,0.83995 l 5.26376,5.385575 c 0.48514,0.49409 1.11582,0.79054 1.79502,0.83995 h 4.02666 c 0.63068,0 0.77622,-0.370565 0.33959,-0.83995 z m -0.6792,-3.9774201 h -9.60576 V 4.32328 h 9.60576 c 0.97028,0.123525 1.69799,0.963475 1.69799,1.9763599 v 0.71643 c 0,1.037585 -0.72771,1.877535 -1.69799,2.00106 z M 138.14346,16.10731 h -14.91804 v -3.82919 h 11.91017 c 0.63068,0 0.89751,-0.27175 0.89751,-0.914065 V 9.1406499 c 0,-0.642315 -0.26683,-0.914065 -0.89751,-0.914065 H 123.22542 V 4.397395 h 14.9423 c 0.63068,0 0.8975,-0.27175 0.8975,-0.914065 V 0.93877 c 0,-0.642315 -0.26682,-0.914065 -0.8975,-0.914065 h -18.62936 c -0.63068,0 -0.89751,0.27175 -0.89751,0.914065 v 18.627165 c 0,0.642315 0.26683,0.914065 0.89751,0.914065 h 18.62936 c 0.63068,0 0.8975,-0.27175 0.8975,-0.914065 V 17.04608 c 0,-0.66702 -0.31534,-0.93877 -0.92176,-0.93877 z M 115.3419,6.7196149 C 115.3662,5.410275 115.00231,4.15035 114.32311,3.03865 113.32858,1.25993 111.48505,0.12352 109.47172,0 H 95.790786 c -0.63068,0 -0.897505,0.27175 -0.897505,0.914065 v 18.60246 c 0,0.642315 0.266825,0.914065 0.897505,0.914065 h 2.935096 c 0.63068,0 0.89751,-0.247045 0.89751,-0.914065 V 4.347985 h 7.932028 c 1.69798,0 3.3232,1.136405 3.3232,2.8657199 V 19.54123 c 0,0.642315 0.26683,0.914065 0.89751,0.914065 h 2.66827 c 0.63068,0 0.8975,-0.27175 0.8975,-0.914065 z M 90.721081,15.98379 H 77.840626 L 90.745336,4.446805 C 91.278991,4.02683 91.594331,3.43392 91.642846,2.742195 V 0.914065 C 91.642846,0.27175 91.376016,0 90.745336,0 h -18.67787 c -0.63068,0 -0.897505,0.27175 -0.897505,0.914065 v 2.54456 c 0,0.642315 0.266825,0.914065 0.897505,0.914065 h 11.95869 l -12.0072,11.46287 c -0.5094,0.419975 -0.848995,1.012885 -0.89751,1.70461 v 2.00106 c 0,0.642315 0.266825,0.914065 0.89751,0.914065 h 18.65361 c 0.63068,0 0.89751,-0.27175 0.89751,-0.914065 v -2.643375 c 0.0485,-0.64232 -0.218315,-0.914065 -0.848995,-0.914065 z M 66.973501,0 H 48.344146 C 47.713465,0 47.44664,0.247045 47.44664,0.914065 v 2.54456 c 0,0.642315 0.24257,0.914065 0.897506,0.914065 h 7.034525 v 15.16854 c 0,0.642315 0.266825,0.914065 0.897505,0.914065 h 2.98361 c 0.63068,0 0.89751,-0.27175 0.89751,-0.914065 V 4.37269 h 6.840465 c 0.63068,0 0.897505,-0.27175 0.897505,-0.914065 V 0.93877 C 67.871016,0.296455 67.604186,0 66.973501,0 Z M 43.250185,16.10731 H 28.3564 v -3.82919 h 11.910175 c 0.63068,0 0.89751,-0.27175 0.89751,-0.914065 V 9.1406499 c 0,-0.642315 -0.24257,-0.914065 -0.89751,-0.914065 H 28.3564 V 4.397395 h 14.893785 c 0.63068,0 0.897505,-0.27175 0.897505,-0.914065 V 0.93877 c 0,-0.642315 -0.266825,-0.914065 -0.897505,-0.914065 H 24.66934 c -0.63068,0 -0.897505,0.27175 -0.897505,0.914065 v 18.627165 c 0,0.642315 0.266825,0.914065 0.897505,0.914065 h 18.580845 c 0.63068,0 0.897505,-0.27175 0.897505,-0.914065 V 17.04608 c 0,-0.66702 -0.266825,-0.93877 -0.897505,-0.93877 z M 19.526865,0 h -2.81381 c -0.63068,0 -0.89751,0.27175 -0.89751,0.914065 V 8.1524749 H 4.6330798 V 0.914065 C 4.6330798,0.27175 4.3662548,0 3.7355748,0 H 0.89751 C 0.266825,0 0,0.27175 0,0.914065 V 19.54123 c 0,0.642315 0.266825,0.914065 0.89751,0.914065 h 2.8380648 c 0.63068,0 0.897505,-0.247045 0.897505,-0.914065 V 12.1793 H 15.839805 v 7.36193 c 0,0.642315 0.266825,0.914065 0.897505,0.914065 h 2.81381 c 0.63068,0 0.89751,-0.27175 0.89751,-0.914065 V 0.914065 C 20.42438,0.296455 20.157545,0 19.526865,0 Z"
     style="fill:#d50c2d;fill-opacity:1;stroke-width:0.244797"
     id="path1" />
</svg>
