<?xml version="1.0" encoding="UTF-8" standalone="no"?>
<svg
   viewBox="0 0 31.791849 32.475024"
   version="1.1"
   id="svg8"
   sodipodi:docname="jest.svg"
   inkscape:version="1.3.2 (091e20e, 2023-11-25)"
   width="31.791849"
   height="32.475025"
   xmlns:inkscape="http://www.inkscape.org/namespaces/inkscape"
   xmlns:sodipodi="http://sodipodi.sourceforge.net/DTD/sodipodi-0.dtd"
   xmlns="http://www.w3.org/2000/svg"
   xmlns:svg="http://www.w3.org/2000/svg"
   xmlns:rdf="http://www.w3.org/1999/02/22-rdf-syntax-ns#"
   xmlns:cc="http://creativecommons.org/ns#"
   xmlns:dc="http://purl.org/dc/elements/1.1/">
  <sodipodi:namedview
     id="namedview8"
     pagecolor="#505050"
     bordercolor="#ffffff"
     borderopacity="1"
     inkscape:showpageshadow="0"
     inkscape:pageopacity="0"
     inkscape:pagecheckerboard="1"
     inkscape:deskcolor="#505050"
     inkscape:zoom="1.2033687"
     inkscape:cx="289.60368"
     inkscape:cy="268.82866"
     inkscape:window-width="1392"
     inkscape:window-height="950"
     inkscape:window-x="0"
     inkscape:window-y="25"
     inkscape:window-maximized="0"
     inkscape:current-layer="svg8" />
  <defs
     id="defs1">
    <style
       id="style1">.a,.c{fill:#c21325;}.a,.b{stroke:#fff;stroke-width:20px;}.b{fill:none;}</style>
  </defs>
  <title
     id="title1">jest-js-icon</title>
  <g
     id="g8"
     transform="matrix(0.07983734,0,0,0.07382619,-0.0041915,0)">
    <path
       class="a"
       d="m 334.92,218.1 c -0.54,0.33 -18.35,-2.66 -40.67,-4.17 a 447.59,447.59 0 0 0 -56.74,0 c -14,1 -32.44,-6.09 -34.64,2.28 -8.24,31.35 -26,58.66 -48.51,79.93 A 163.89,163.89 0 0 1 97,331.73 c -25,-12.84 -36.81,-41.4 -26.16,-66.44 8.45,-19.87 18.28,-41.74 0.13,-46.75 -13.21,-3.64 -20.46,9 -25.54,22.55 -9.74,25.91 -28.23,52.74 -33.5,84.52 -5.56,33.54 0,69.15 29,89.25 67.56,46.83 140.9,-29 218.23,-48.09 28,-6.92 58.78,-5.8 83.47,-20.1 a 69.92,69.92 0 0 0 34.23,-48.52 C 382.43,266 365.71,234.09 334.92,218.1 Z"
       id="path1" />
    <path
       class="b"
       d="m 202.87,216.19 c -8.24,31.35 -26,58.66 -48.51,79.93 A 163.84,163.84 0 0 1 97,331.73 c -25,-12.84 -36.8,-41.4 -26.15,-66.44 8.45,-19.87 18.28,-41.74 0.13,-46.75 -13.21,-3.64 -20.47,9 -25.54,22.55 -9.75,25.91 -28.24,52.75 -33.51,84.52 -5.56,33.54 0,69.15 29,89.25 67.56,46.83 140.9,-29 218.23,-48.09 28,-6.92 58.78,-5.8 83.47,-20.1 a 69.92,69.92 0 0 0 34.23,-48.52 c 5.58,-32.13 -11.14,-64.06 -41.93,-80"
       id="path2" />
    <polygon
       class="c"
       points="319.21,201.98 384.31,10 145.32,10 210.26,201.64 264.89,91.17 "
       id="polygon2" />
    <polygon
       class="b"
       points="319.21,201.98 384.31,10 145.32,10 210.26,201.64 264.89,91.17 "
       id="polygon3" />
    <circle
       class="c"
       cx="198.99001"
       cy="216.58"
       r="40.950001"
       id="circle3" />
    <circle
       class="b"
       cx="198.99001"
       cy="216.58"
       r="40.950001"
       id="circle4" />
    <circle
       class="a"
       cx="332.37"
       cy="216.58"
       r="40.950001"
       id="circle5" />
    <circle
       class="b"
       cx="332.37"
       cy="216.58"
       r="40.950001"
       id="circle6" />
    <circle
       class="c"
       cx="65.099998"
       cy="216.88"
       r="40.939999"
       id="circle7" />
    <circle
       class="b"
       cx="65.099998"
       cy="216.88"
       r="40.939999"
       id="circle8" />
  </g>
  <metadata
     id="metadata1">
    <rdf:RDF>
      <cc:Work
         rdf:about="">
        <dc:title>jest-js-icon</dc:title>
      </cc:Work>
    </rdf:RDF>
  </metadata>
</svg>
