<?xml version="1.0" encoding="UTF-8" standalone="no"?>
<svg
   width="32"
   height="32"
   viewBox="0 0 32 32"
   version="1.1"
   id="svg10"
   sodipodi:docname="jwt.svg"
   inkscape:version="1.3.2 (091e20e, 2023-11-25)"
   xmlns:inkscape="http://www.inkscape.org/namespaces/inkscape"
   xmlns:sodipodi="http://sodipodi.sourceforge.net/DTD/sodipodi-0.dtd"
   xmlns="http://www.w3.org/2000/svg"
   xmlns:svg="http://www.w3.org/2000/svg"
   xmlns:rdf="http://www.w3.org/1999/02/22-rdf-syntax-ns#"
   xmlns:cc="http://creativecommons.org/ns#"
   xmlns:dc="http://purl.org/dc/elements/1.1/"
   xmlns:sketch="http://www.bohemiancoding.com/sketch/ns">
  <sodipodi:namedview
     id="namedview10"
     pagecolor="#505050"
     bordercolor="#ffffff"
     borderopacity="1"
     inkscape:showpageshadow="0"
     inkscape:pageopacity="0"
     inkscape:pagecheckerboard="1"
     inkscape:deskcolor="#505050"
     inkscape:zoom="5.8624265"
     inkscape:cx="58.764063"
     inkscape:cy="56.205395"
     inkscape:window-width="1392"
     inkscape:window-height="950"
     inkscape:window-x="0"
     inkscape:window-y="25"
     inkscape:window-maximized="0"
     inkscape:current-layer="svg10" />
  <!-- Generator: Sketch 3.3.2 (12043) - http://www.bohemiancoding.com/sketch -->
  <title
     id="title1">Group</title>
  <desc
     id="desc1">Created with Sketch.</desc>
  <defs
     id="defs1" />
  <g
     id="Page-1"
     stroke="none"
     stroke-width="1"
     fill="none"
     fill-rule="evenodd"
     sketch:type="MSPage"
     transform="matrix(0.32096289,0,0,0.32,-0.12838516,-0.096)">
    <g
       id="jwt_logo"
       sketch:type="MSLayerGroup"
       transform="translate(-150,-538)">
      <g
         id="Group"
         transform="translate(0,413)"
         sketch:type="MSShapeGroup">
        <g
           transform="translate(150,125)"
           id="Shape">
          <g
             id="g10">
            <path
               d="M 57.8,27.2 57.7,0.3 h -15 l 0.1,26.9 7.5,10.3 z"
               fill="#ffffff"
               id="path1" />
            <path
               d="m 42.8,73.3 v 27 h 15 v -27 L 50.3,63 Z"
               fill="#ffffff"
               id="path2" />
            <path
               d="M 57.8,73.3 73.6,95.1 85.7,86.3 69.9,64.5 57.8,60.6 Z"
               fill="#00f2e6"
               id="path3" />
            <path
               d="M 42.8,27.2 26.9,5.4 14.8,14.2 30.6,36 42.8,39.9 Z"
               fill="#00f2e6"
               id="path4" />
            <path
               d="M 30.6,36 5,27.7 0.4,41.9 26,50.3 l 12.1,-4 z"
               fill="#00b9f1"
               id="path5" />
            <path
               d="m 62.4,54.2 7.5,10.3 25.6,8.3 4.6,-14.2 -25.6,-8.3 z"
               fill="#00b9f1"
               id="path6" />
            <path
               d="M 74.5,50.3 100.1,41.9 95.5,27.7 69.9,36 62.4,46.3 Z"
               fill="#d63aff"
               id="path7" />
            <path
               d="M 26,50.3 0.4,58.6 5,72.8 30.6,64.5 38.1,54.2 Z"
               fill="#d63aff"
               id="path8" />
            <path
               d="M 30.6,64.5 14.8,86.3 26.9,95.1 42.8,73.3 V 60.6 Z"
               fill="#fb015b"
               id="path9" />
            <path
               d="M 69.9,36 85.7,14.2 73.6,5.4 57.8,27.2 v 12.7 z"
               fill="#fb015b"
               id="path10" />
          </g>
        </g>
      </g>
    </g>
  </g>
  <metadata
     id="metadata1">
    <rdf:RDF>
      <cc:Work
         rdf:about="">
        <dc:title>Group</dc:title>
      </cc:Work>
    </rdf:RDF>
  </metadata>
</svg>
