<?xml version="1.0" encoding="UTF-8" standalone="no"?>
<svg
   height="31.99999"
   viewBox="0 0 6.5535992 7.0170511"
   width="31.999996"
   version="1.1"
   id="svg19"
   sodipodi:docname="lighthouse.svg"
   inkscape:version="1.3.2 (091e20e, 2023-11-25)"
   xmlns:inkscape="http://www.inkscape.org/namespaces/inkscape"
   xmlns:sodipodi="http://sodipodi.sourceforge.net/DTD/sodipodi-0.dtd"
   xmlns="http://www.w3.org/2000/svg"
   xmlns:svg="http://www.w3.org/2000/svg">
  <defs
     id="defs19" />
  <sodipodi:namedview
     id="namedview19"
     pagecolor="#505050"
     bordercolor="#ffffff"
     borderopacity="1"
     inkscape:showpageshadow="0"
     inkscape:pageopacity="0"
     inkscape:pagecheckerboard="1"
     inkscape:deskcolor="#505050"
     inkscape:zoom="1.7848257"
     inkscape:cx="110.65506"
     inkscape:cy="186.85298"
     inkscape:window-width="1392"
     inkscape:window-height="950"
     inkscape:window-x="0"
     inkscape:window-y="25"
     inkscape:window-maximized="0"
     inkscape:current-layer="svg19" />
  <g
     fill="none"
     fill-rule="evenodd"
     id="g19"
     transform="matrix(0.01370518,0,0,0.01370517,-0.18974893,0)">
    <circle
       cx="256"
       cy="256"
       fill="#0535c1"
       fill-rule="nonzero"
       r="256"
       id="circle1" />
    <path
       d="M 311.273,116.364 H 462.545 V 267.636 H 311.273 Z"
       id="path1" />
    <path
       d="m 424.727,179.386 h -15.313 c -7.62,-21.77 -29.847,-34.855 -52.58,-30.955 -22.733,3.9 -39.326,23.646 -39.254,46.71 0.006,26.11 21.17,47.273 47.278,47.28 h 59.87 c 16.998,-0.566 30.485,-14.51 30.485,-31.518 0,-17.008 -13.487,-30.951 -30.486,-31.517 z"
       fill="#eaeaea"
       fill-rule="nonzero"
       id="path2" />
    <path
       d="m 456.25,211.293 v -0.384 c -0.006,-17.407 -14.116,-31.516 -31.523,-31.523 h -15.755 v 0.791 h 15.755 c 17.248,-0.001 31.294,13.859 31.523,31.104 z"
       fill="#ffffff"
       fill-opacity="0.2"
       fill-rule="nonzero"
       id="path3" />
    <g
       fill-rule="nonzero"
       id="g11">
      <path
         d="m 364.858,147.887 25.554,80.71 c 8.54,-8.577 21.713,-20.4 21.713,-33.444 -0.006,-26.108 -21.17,-47.272 -47.278,-47.278 z"
         fill="#e1e1e1"
         id="path4" />
      <circle
         cx="364.858"
         cy="195.153"
         fill="#eeeeee"
         r="47.278999"
         id="circle4" />
      <path
         d="m 364.858,148.666 c 25.955,0.012 47.05,20.94 47.267,46.895 v -0.384 c 0.01,-26.108 -21.147,-47.28 -47.255,-47.29 -26.108,-0.01 -47.28,21.147 -47.29,47.255 v 0.384 c 0.236,-25.945 21.332,-46.855 47.278,-46.86 z"
         fill="#ffffff"
         fill-opacity="0.2"
         id="path5" />
      <path
         d="m 424.727,241.63 h -59.88 c -25.955,-0.013 -47.05,-20.942 -47.267,-46.895 v 0.384 c 0.012,26.104 21.174,47.26 47.278,47.266 h 59.87 c 17.402,-0.006 31.51,-14.108 31.522,-31.51 v -0.385 c -0.216,17.257 -14.265,31.134 -31.523,31.14 z"
         fill="#212121"
         fill-opacity="0.1"
         id="path6" />
      <path
         d="M 186.182,107.636 H 320 V 224 H 186.182 Z"
         fill="#fff176"
         id="path7" />
      <path
         d="m 171.636,285.09 h 160 v 160 h -160 z"
         fill="#ffffff"
         id="path8" />
      <g
         fill="#f4481e"
         id="g10">
        <path
           d="m 349.09,212.364 h 23.274 v 46.545 H 139.636 v -46.545 h 23.273 V 119.273 L 256,61.09 l 93.09,58.182 z m -46.545,0 V 145.07 L 256,115.98 209.455,145.07 v 67.294 z"
           id="path9" />
        <path
           d="m 129.303,478.499 39.424,-266.135 h 174.546 l 39.424,266.135 A 254.836,254.836 0 0 1 256,512 254.836,254.836 0 0 1 129.303,478.499 Z M 308.12,292.666 198.621,328.24 185.31,418.07 320.199,374.236 Z"
           id="path10" />
      </g>
    </g>
    <path
       d="M 55.273,165.818 H 229.818 V 340.364 H 55.273 Z"
       id="path11" />
    <g
       fill-rule="nonzero"
       id="g18">
      <path
         d="m 186.182,238.545 h -17.676 c -8.83,-25.075 -34.455,-40.129 -60.657,-35.632 -26.202,4.498 -45.341,27.235 -45.304,53.82 0.02,30.118 24.434,54.527 54.552,54.54 h 69.085 c 19.725,-0.5 35.455,-16.633 35.455,-36.364 0,-19.731 -15.73,-35.865 -35.455,-36.364 z"
         fill="#fafafa"
         id="path12" />
      <path
         d="m 222.545,275.34 v -0.43 c 0,-20.074 -16.29,-36.365 -36.363,-36.365 h -18.188 v 0.908 h 18.188 c 19.895,0.005 36.096,15.993 36.363,35.887 z"
         fill="#ffffff"
         fill-opacity="0.2"
         id="path13" />
      <path
         d="m 117.097,202.182 29.475,93.114 c 9.856,-9.89 25.053,-23.529 25.053,-38.586 -0.02,-30.114 -24.426,-54.52 -54.54,-54.54 z"
         fill="#e1e1e1"
         id="path14" />
      <circle
         cx="117.097"
         cy="256.733"
         fill="#ffffff"
         r="54.550999"
         id="circle14" />
      <path
         d="m 117.097,203.09 c 29.946,0.018 54.284,24.163 54.54,54.109 v -0.431 A 54.546003,54.546003 0 1 0 62.545,256.733 v 0.43 c 0.269,-29.938 24.612,-54.068 54.552,-54.074 z"
         fill="#ffffff"
         fill-opacity="0.2"
         id="path15" />
      <path
         d="M 186.182,310.365 H 117.085 C 87.139,310.347 62.801,286.201 62.545,256.256 v 0.43 c 0.013,30.123 24.43,54.539 54.552,54.552 h 69.085 c 20.073,0 36.363,-16.291 36.363,-36.364 v -0.442 c -0.242,19.912 -16.45,35.928 -36.363,35.933 z"
         fill="#212121"
         fill-opacity="0.1"
         id="path16" />
      <path
         d="m 256,2.676 c 140.94,0 255.244,113.885 255.977,254.662 L 512,256 C 512,114.618 397.382,0 256,0 114.618,0 0,114.618 0,256 c 0,0.442 0.035,0.873 0.035,1.338 C 0.756,116.573 115.037,2.676 256,2.676 Z"
         fill="#ffffff"
         fill-opacity="0.2"
         id="path17" />
      <path
         d="M 511.977,254.662 C 511.232,395.439 396.94,509.324 256,509.324 115.049,509.324 0.756,395.427 0.035,254.662 0.035,255.127 0,255.558 0,256 0,397.382 114.618,512 256,512 397.382,512 512,397.382 512,256 Z"
         fill="#263238"
         fill-opacity="0.2"
         id="path18" />
    </g>
  </g>
</svg>
