<?xml version="1.0" encoding="UTF-8" standalone="no"?>
<svg
   width="31.999998"
   height="31.999998"
   viewBox="0 0 31.999998 31.999998"
   version="1.1"
   xml:space="preserve"
   style="clip-rule:evenodd;fill-rule:evenodd;stroke-linejoin:round;stroke-miterlimit:2"
   id="svg2"
   sodipodi:docname="mermaidjs.svg"
   inkscape:version="1.3.2 (091e20e, 2023-11-25)"
   xmlns:inkscape="http://www.inkscape.org/namespaces/inkscape"
   xmlns:sodipodi="http://sodipodi.sourceforge.net/DTD/sodipodi-0.dtd"
   xmlns="http://www.w3.org/2000/svg"
   xmlns:svg="http://www.w3.org/2000/svg"><defs
   id="defs2" /><sodipodi:namedview
   id="namedview2"
   pagecolor="#505050"
   bordercolor="#ffffff"
   borderopacity="1"
   inkscape:showpageshadow="0"
   inkscape:pageopacity="0"
   inkscape:pagecheckerboard="1"
   inkscape:deskcolor="#505050"
   inkscape:zoom="0.92596468"
   inkscape:cx="183.05234"
   inkscape:cy="257.56922"
   inkscape:window-width="1392"
   inkscape:window-height="950"
   inkscape:window-x="0"
   inkscape:window-y="25"
   inkscape:window-maximized="0"
   inkscape:current-layer="svg2" />
    
    <g
   id="g2"
   transform="scale(0.0652848)"><path
     d="M 490.16,84.61 C 490.16,37.912 452.248,0 405.55,0 H 84.61 C 37.912,0 0,37.912 0,84.61 v 320.94 c 0,46.698 37.912,84.61 84.61,84.61 h 320.94 c 46.698,0 84.61,-37.912 84.61,-84.61 z"
     style="fill:#ff3670"
     id="path1" /><path
     d="M 407.48,111.18 C 335.587,108.103 269.573,152.338 245.08,220 220.587,152.338 154.573,108.103 82.68,111.18 c -2.395,57.049 24.897,111.452 72.06,143.64 24.168,16.599 38.61,44.131 38.53,73.45 v 50.86 H 296.9 v -50.86 c -0.084,-29.317 14.355,-56.85 38.52,-73.45 47.176,-32.176 74.472,-86.587 72.06,-143.64 z"
     style="fill:#ffffff;fill-rule:nonzero"
     id="path2" /></g>
</svg>
