<?xml version="1.0" encoding="UTF-8" standalone="no"?>
<svg
   height="31.99999"
   viewBox="8.738 -5.0362283 0.1117435 0.50439915"
   width="15.999999"
   version="1.1"
   id="svg3"
   sodipodi:docname="mongodb.svg"
   inkscape:version="1.3.2 (091e20e, 2023-11-25)"
   xmlns:inkscape="http://www.inkscape.org/namespaces/inkscape"
   xmlns:sodipodi="http://sodipodi.sourceforge.net/DTD/sodipodi-0.dtd"
   xmlns="http://www.w3.org/2000/svg"
   xmlns:svg="http://www.w3.org/2000/svg">
  <defs
     id="defs3" />
  <sodipodi:namedview
     id="namedview3"
     pagecolor="#505050"
     bordercolor="#ffffff"
     borderopacity="1"
     inkscape:showpageshadow="0"
     inkscape:pageopacity="0"
     inkscape:pagecheckerboard="1"
     inkscape:deskcolor="#505050"
     inkscape:zoom="3.2995047"
     inkscape:cx="45.30983"
     inkscape:cy="41.369845"
     inkscape:window-width="1392"
     inkscape:window-height="950"
     inkscape:window-x="0"
     inkscape:window-y="25"
     inkscape:window-maximized="0"
     inkscape:current-layer="svg3" />
  <g
     id="g3"
     transform="matrix(0.017545,0,0,0.01576129,8.5098023,-5.0362219)">
    <path
       d="m 15.9,0.087 0.854,1.604 c 0.192,0.296 0.4,0.558 0.645,0.802 a 22.406,22.406 0 0 1 2.004,2.266 c 1.447,1.9 2.423,4.01 3.12,6.292 0.418,1.394 0.645,2.824 0.662,4.27 0.07,4.323 -1.412,8.035 -4.4,11.12 a 12.7,12.7 0 0 1 -1.57,1.342 c -0.296,0 -0.436,-0.227 -0.558,-0.436 a 3.589,3.589 0 0 1 -0.436,-1.255 c -0.105,-0.523 -0.174,-1.046 -0.14,-1.586 V 24.262 C 16.057,24.21 15.796,0.21 15.9,0.087 Z"
       fill="#599636"
       id="path1" />
    <path
       d="m 15.9,0.034 c -0.035,-0.07 -0.07,-0.017 -0.105,0.017 0.017,0.35 -0.105,0.662 -0.296,0.96 -0.21,0.296 -0.488,0.523 -0.767,0.767 -1.55,1.342 -2.77,2.963 -3.747,4.776 -1.3,2.44 -1.97,5.055 -2.16,7.808 -0.087,0.993 0.314,4.497 0.627,5.508 0.854,2.684 2.388,4.933 4.375,6.885 0.488,0.47 1.01,0.906 1.55,1.325 0.157,0 0.174,-0.14 0.21,-0.244 a 4.78,4.78 0 0 0 0.157,-0.68 l 0.35,-2.614 z"
       fill="#6cac48"
       id="path2" />
    <path
       d="m 16.754,28.845 c 0.035,-0.4 0.227,-0.732 0.436,-1.063 -0.21,-0.087 -0.366,-0.26 -0.488,-0.453 a 3.235,3.235 0 0 1 -0.26,-0.575 c -0.244,-0.732 -0.296,-1.5 -0.366,-2.248 v -0.453 c -0.087,0.07 -0.105,0.662 -0.105,0.75 a 17.37,17.37 0 0 1 -0.314,2.353 c -0.052,0.314 -0.087,0.627 -0.28,0.906 0,0.035 0,0.07 0.017,0.122 0.314,0.924 0.4,1.865 0.453,2.824 v 0.35 c 0,0.418 -0.017,0.33 0.33,0.47 0.14,0.052 0.296,0.07 0.436,0.174 0.105,0 0.122,-0.087 0.122,-0.157 L 16.683,31.27 v -1.604 c -0.017,-0.28 0.035,-0.558 0.07,-0.82 z"
       fill="#c2bfbf"
       id="path3" />
  </g>
</svg>
