<?xml version="1.0" encoding="UTF-8" standalone="no"?>
<svg
   width="37.999996"
   height="48.000004"
   viewBox="0 0 4.9861604 6.2976005"
   preserveAspectRatio="xMidYMid"
   version="1.1"
   id="svg8"
   sodipodi:docname="nightwatch.svg"
   inkscape:version="1.3.2 (091e20e, 2023-11-25)"
   xmlns:inkscape="http://www.inkscape.org/namespaces/inkscape"
   xmlns:sodipodi="http://sodipodi.sourceforge.net/DTD/sodipodi-0.dtd"
   xmlns="http://www.w3.org/2000/svg"
   xmlns:svg="http://www.w3.org/2000/svg">
  <defs
     id="defs8" />
  <sodipodi:namedview
     id="namedview8"
     pagecolor="#505050"
     bordercolor="#ffffff"
     borderopacity="1"
     inkscape:showpageshadow="0"
     inkscape:pageopacity="0"
     inkscape:pagecheckerboard="1"
     inkscape:deskcolor="#505050"
     inkscape:zoom="0.26026257"
     inkscape:cx="447.62487"
     inkscape:cy="-147.92753"
     inkscape:window-width="1392"
     inkscape:window-height="950"
     inkscape:window-x="0"
     inkscape:window-y="25"
     inkscape:window-maximized="0"
     inkscape:current-layer="svg8" />
  <g
     id="g8"
     transform="matrix(0.01947719,0,0,0.01924514,0,-0.01846136)">
    <path
       d="m 179.257,98.215 c 135.795,67.576 72.605,195.517 -45.395,202.093 a 73.928,73.928 0 0 1 -14.954,-0.692 C 6.538,282.924 -33.745,169.793 72.222,103.22 104.509,82.936 145.12,81.226 179.257,98.214"
       fill="#794422"
       id="path1" />
    <path
       d="m 170.746,297.509 c 59.457,-34.314 86.973,-131.686 37.182,-217.086 2.813,-14.938 4.5,-28.894 4.737,-41.584 0.468,-4.11 -3.517,-7.298 -7.423,-5.94 -11.644,2.852 -22.853,6.69 -33.558,11.661 -8.105,-5.648 -16.486,-7.553 -23.368,-7.916 -3.745,-0.197 -2.33,-5.825 -2.027,-7.892 1.779,-3.895 3.467,-7.162 7.654,-10.897 2.908,-2.66 -0.739,-6.316 -4.077,-4.222 -5.437,2.597 -8.833,5.218 -12.662,9.038 -1.087,0.808 -2.388,0.733 -3.324,0.558 -0.669,-0.125 -1.155,-0.735 -1.228,-1.412 -0.821,-7.54 0.031,-14.303 6.627,-19.39 1.241,-0.958 -0.006,-2.796 -1.431,-2.361 -11.009,3.36 -15.784,10.974 -19.601,20.387 -3.065,-2.154 -6.652,-4.038 -10.733,-5.666 -0.69,-0.365 -1.592,-0.599 -2.214,-0.129 -1.116,0.843 -2.504,1.717 -1.86,3.22 4.331,6.274 8.683,12.384 13.305,16.382 -10.942,2.322 -21.29,6.145 -30.903,11.827 L 49.358,32.053 c -4.761,-1.83 -9.733,2.137 -9.003,7.186 2.087,21.673 4.23,42.61 7.335,50.721 C 5.168,177.507 31.315,265.308 87.915,297.51 H 0 v 29.758 H 256 V 297.51 h -85.254 z"
       fill="#502d17"
       id="path2" />
    <path
       d="m 128.763,106.94 c 16.31,-40.347 52.284,-45.534 77.83,-19.745 21.203,21.405 21.747,80.406 -29.758,91.28 52.363,43.492 16.596,117.316 -43.208,117.316 -60.089,-0.858 -98.432,-73.25 -42.634,-117.889 -52.078,2.29 -60.96,-52.16 -42.063,-83.553 17.28,-28.708 67.243,-33.192 79.833,12.59"
       fill="#ffffff"
       id="path3" />
    <path
       d="m 152.513,161.592 c 1.464,-2.111 1.387,-4.898 -0.104,-6.99 -4.995,-7 -12.148,-12.754 -22.501,-12.754 -10.627,0 -16.942,5.772 -22.748,13.449 -1.516,2.003 -1.622,4.77 -0.237,6.866 4.36,6.595 11.866,12.706 20.348,18.975 a 4.289,4.289 0 0 0 5.215,-0.085 c 7.974,-6.297 15.42,-12.817 20.027,-19.461"
       fill="#ff7f2b"
       id="path4" />
    <path
       d="m 189.425,122.582 c 0,18.727 -12.324,33.525 -26.468,33.525 -14.144,0 -25.61,-15.18 -25.61,-33.907 0,-18.727 11.466,-33.907 25.61,-33.907 14.144,0 26.468,15.561 26.468,34.288 z m -69.628,3.338 c 0,18.727 -12.324,33.526 -26.468,33.526 -14.144,0 -25.609,-15.181 -25.609,-33.908 0,-18.726 11.465,-33.907 25.61,-33.907 14.143,0 26.467,15.562 26.467,34.289 z"
       fill="#b1dfec"
       id="path5" />
    <path
       d="m 179.6,126.587 c 0,12.276 -7.671,22.136 -16.547,22.136 -8.876,0 -16.453,-9.955 -16.453,-22.23 0,-12.277 7.577,-22.225 16.453,-22.225 8.876,0 16.548,10.043 16.548,22.32 z m -69.054,-0.381 c 0,12.276 -7.672,22.136 -16.549,22.136 -8.876,0 -16.453,-9.955 -16.453,-22.231 0,-12.276 7.578,-22.224 16.454,-22.224 8.876,0 16.547,10.043 16.547,22.319 z"
       id="path6" />
    <path
       d="m 166.82,115.905 c 0,3.74 -2.99,6.772 -6.677,6.772 -3.687,0 -6.676,-3.032 -6.676,-6.772 0,-3.74 2.989,-6.772 6.676,-6.772 3.688,0 6.677,3.032 6.677,6.772 z m -64,-0.382 c 0,3.74 -2.99,6.772 -6.677,6.772 -3.687,0 -6.676,-3.032 -6.676,-6.772 0,-3.74 2.989,-6.772 6.676,-6.772 3.688,0 6.677,3.032 6.677,6.772 z"
       fill="#ffffff"
       id="path7" />
    <path
       d="m 72.966,311.72 c 0,0 -0.191,8.107 5.246,8.203 1.704,5.121 7.723,5.094 8.68,0.667 h 6.867 c 0,0 -0.668,3.53 3.434,3.434 4.1,-0.095 3.719,-3.72 3.719,-3.72 h 6.486 c 0,0 -0.954,3.72 3.243,3.72 4.197,0 3.995,-4.262 3.995,-4.262 2.358,-1.482 5.114,-1.365 5.114,-5.944 0,-0.997 -0.24,-2.085 -0.698,-3.212 -2.486,-6.1 -11.43,-13.337 -23.958,-13.384 -8.04,0.053 -15.531,4.957 -20.507,9.777 -1.526,1.478 -1.621,4.721 -1.621,4.721 z m 113.5,0 c 0,0 0.002,8.393 -5.435,8.49 -0.857,4.863 -7.855,4.806 -8.49,0.38 h -6.868 c 0,0 0.477,3.53 -3.624,3.434 -4.102,-0.095 -3.529,-3.72 -3.529,-3.72 h -6.486 c 0,0 0.763,3.72 -3.434,3.72 -4.197,0 -3.804,-4.262 -3.804,-4.262 -2.358,-1.482 -5.114,-1.365 -5.114,-5.944 0,-0.997 0.24,-2.085 0.698,-3.212 2.486,-6.1 11.43,-13.337 23.958,-13.384 8.04,0.053 14.797,4.906 20.031,9.443 2.1,2.194 2.097,5.055 2.097,5.055 z"
       fill="#ff7f2b"
       id="path8" />
  </g>
</svg>
