<?xml version="1.0" encoding="UTF-8" standalone="no"?>
<svg
   width="40"
   height="32"
   viewBox="0 0 20 16"
   fill="none"
   version="1.1"
   id="svg116"
   sodipodi:docname="parcel.svg"
   inkscape:version="1.3.2 (091e20e, 2023-11-25)"
   xmlns:inkscape="http://www.inkscape.org/namespaces/inkscape"
   xmlns:sodipodi="http://sodipodi.sourceforge.net/DTD/sodipodi-0.dtd"
   xmlns="http://www.w3.org/2000/svg"
   xmlns:svg="http://www.w3.org/2000/svg">
  <sodipodi:namedview
     id="namedview116"
     pagecolor="#505050"
     bordercolor="#ffffff"
     borderopacity="1"
     inkscape:showpageshadow="0"
     inkscape:pageopacity="0"
     inkscape:pagecheckerboard="1"
     inkscape:deskcolor="#505050"
     inkscape:zoom="8.2464453"
     inkscape:cx="26.981322"
     inkscape:cy="26.375001"
     inkscape:window-width="1392"
     inkscape:window-height="950"
     inkscape:window-x="0"
     inkscape:window-y="25"
     inkscape:window-maximized="0"
     inkscape:current-layer="svg116" />
  <g
     id="g116"
     transform="matrix(0.625,0,0,0.66497651,0,-2.6599059)">
    <path
       d="m 17.5656,27.9156 8.783,-5.5532 c 0.0322,-0.0204 0.0747,-0.0107 0.095,0.0214 0.0204,0.0322 0.0107,0.0747 -0.0215,0.0951 l -8.8118,5.5714 c -0.0111,0.0071 -0.0239,0.0107 -0.0368,0.0107 z"
       fill="url(#Parcel_Paint0_lLnear)"
       id="path1"
       style="fill:url(#Parcel_Paint0_lLnear)" />
    <path
       d="m 17.5735,28.061 c -0.0081,0 -0.0162,-0.0015 -0.024,-0.0043 L 5.5756,23.5947 C 5.53993,23.5815 5.52174,23.5418 5.53501,23.5062 5.54828,23.4705 5.58796,23.4525 5.62359,23.4656 l 11.94201,4.4501 z"
       fill="url(#Parcel_Paint1_lLnear)"
       id="path2"
       style="fill:url(#Parcel_Paint1_lLnear)" />
    <path
       d="m 30.1391,6.72397 -1.383,2.28884 -5.5532,2.36089 -0.3086,0.1311 -4.9918,4.6678 c -0.0965,0.0957 -0.1618,0.2335 -0.1729,0.3094 -0.0055,0.0264 -0.0271,0.015 -0.0492,0.0138 -0.0224,-0.0012 -0.0543,0.0079 -0.0559,-0.0197 -0.0019,-0.1 -0.0141,-0.211 -0.1756,-0.3118 l -2.5006,-1.6203 -4e-4,-4e-4 L 13.1256,13.3629 7.98811,12.0449 3.68838,10.9418 0.96492,6.71058 1.00626,6.66295 1.00901,6.6598 11.2336,4.00248 c 0.0149,-0.00512 0.0177,-0.00197 0.0232,0.0063 l 3.4876,5.2237 0.0685,0.10275 c 0.0748,0.11023 0.0827,0.17715 0.0823,0.22676 h 0.0641 c -4e-4,-0.00355 -4e-4,-0.00748 -4e-4,-0.01181 0,-0.00512 4e-4,-0.01063 8e-4,-0.01693 0,-0.00394 8e-4,-0.00787 0.0012,-0.0122 8e-4,-0.00512 0.0012,-0.01024 0.0024,-0.01536 8e-4,-0.00512 0.0015,-0.01023 0.0023,-0.01575 0.0036,-0.01771 0.0083,-0.03739 0.0142,-0.05747 0.0016,-0.00591 0.0032,-0.01221 0.0051,-0.01811 0.0063,-0.02047 0.013,-0.04134 0.0205,-0.06181 0.0031,-0.00787 0.0063,-0.01575 0.0094,-0.02362 0.0099,-0.02441 0.0201,-0.04724 0.0308,-0.06771 0.0102,-0.01969 0.0204,-0.03661 0.0303,-0.05 L 18.2202,4.63905 C 18.228,4.62803 18.2316,4.62252 18.2473,4.62528 l 11.8713,2.04279 z"
       fill="#e8b57e"
       id="path3" />
    <path
       d="m 14.9482,14.5439 -4e-4,-3e-4 -1.8223,-1.1807 -5.13751,-1.318 6.90701,-2.48293 0.0182,-0.03661 4e-4,0.03661 z"
       fill="url(#Parcel_Paint2_lLnear)"
       id="path4"
       style="fill:url(#Parcel_Paint2_lLnear)" />
    <path
       d="M 14.8952,9.56197 7.98811,12.0449 7.36531,11.8851 3.68838,10.9418 0.96492,6.71058 1.00901,6.65979 11.2336,4.00248 c 0.0149,-0.00512 0.0177,-0.00197 0.0232,0.0063 l 3.4876,5.22368 0.0685,0.10275 c 0.0748,0.11023 0.0827,0.17716 0.0823,0.22676 z"
       fill="url(#Parcel_Paint3_lLnear)"
       id="path5"
       style="fill:url(#Parcel_Paint3_lLnear)" />
    <path
       d="M 14.9153,9.79859 8.38421,12.1465 7.36538,11.8851 14.7444,9.23248 14.8129,9.33523 c 0.0748,0.11023 0.0827,0.17716 0.0823,0.22676 h 0.0185 z"
       fill="url(#Parcel_Paint4_lLnear)"
       id="path6"
       style="fill:url(#Parcel_Paint4_lLnear)" />
    <path
       d="M 3.78163,10.9658 3.68833,10.9418 0.964874,6.71057 1.00621,6.66293 Z"
       fill="#d1a578"
       id="path7" />
    <path
       d="m 23.2028,11.3737 -0.3086,0.1311 -4.9918,4.6678 c -0.0965,0.0957 -0.1618,0.2335 -0.1728,0.3094 -0.0055,0.0264 -0.0272,0.015 -0.0492,0.0138 -0.0225,-0.0012 -0.0544,0.0079 -0.0559,-0.0197 -0.002,-0.1 -0.0142,-0.211 -0.1756,-0.3118 l -2.5011,-1.6207 -0.0342,-4.98163 -4e-4,-0.03661 0.0461,0.03661 z"
       fill="url(#Parcel_Paint5_lLnear)"
       id="path8"
       style="fill:url(#Parcel_Paint5_lLnear)" />
    <path
       d="m 30.139,6.72397 -1.3829,2.28883 -5.0553,2.1491 -0.498,0.2118 -8.2436,-1.81172 c -0.0055,-0.06338 0.0386,-0.20865 0.0862,-0.30077 0.0103,-0.01968 0.0205,-0.03661 0.0304,-0.05 l 3.1443,-4.57216 c 0.0078,-0.01102 0.0114,-0.01653 0.0271,-0.01377 l 11.8714,2.04278 z"
       fill="url(#Parcel_Paint6_lLnear)"
       id="path9"
       style="fill:url(#Parcel_Paint6_lLnear)" />
    <path
       d="m 23.7008,11.1619 -0.8066,0.3429 -0.1032,0.1004 -7.8774,-1.74088 0.0362,-0.30235 h 0.0095 C 14.9538,9.49859 14.9979,9.35332 15.0455,9.2612 Z"
       fill="url(#Parcel_Paint7_lLnear)"
       id="path10"
       style="fill:url(#Parcel_Paint7_lLnear)" />
    <path
       opacity="0.75"
       d="m 15.1321,9.59977 v 5.06343 l -0.1839,-0.1192 -4e-4,-4e-4 -0.2413,-0.1563 V 9.62969 l 0.1886,-0.06771 h 0.0641 z"
       fill="url(#Parcel_Paint8_lLnear)"
       id="path11"
       style="fill:url(#Parcel_Paint8_lLnear)" />
    <path
       d="M 17.5244,27.9793 5.5407,23.5086 C 5.47334,23.4798 5.46314,23.4155 5.45889,23.337 c 0,0 -0.5156,-10.2123 -0.51568,-10.2137 -9.8e-4,-0.0265 0.03177,-0.0425 0.0287,-0.0582 -0.0085,-0.039 -0.08188,-0.185 -0.10582,-0.2001 L 5.34058e-5,10.0993 0.0411138,10.0059 13.1255,13.3631 17.449,16.1645 c 0.1612,0.1004 0.1737,0.2116 0.1755,0.3116 0.0014,0.0276 0.0335,0.0186 0.0558,0.0197 0.0222,0.0012 0.0437,0.0124 0.0492,-0.0139 0.0113,-0.0757 0.0766,-0.2137 0.1731,-0.3092 l 4.9916,-4.668 9.0509,-3.84738 0.0547,0.07582 -4.8857,4.29356 c -0.0946,0.0953 -0.1387,0.2118 -0.1196,0.2591 l -0.5,10.0093 c -0.0075,0.0638 -0.0374,0.0826 -0.1017,0.1263 l -8.7601,5.5452 c -0.0369,0.0229 -0.0737,0.0285 -0.1083,0.0127 z"
       fill="#bf9064"
       id="path12" />
    <path
       d="m 17.6804,16.4958 -0.0862,11.4883 c -0.024,0.0067 -0.0473,0.0055 -0.0697,-0.0048 L 5.54058,23.5088 C 5.47326,23.48 5.46303,23.4155 5.45909,23.3371 c 0,0 -0.51572,-10.2123 -0.51572,-10.2139 v -0.0027 c 0,-0.0024 4e-4,-0.0048 0.00119,-0.0071 3.9e-4,-0.002 0.00118,-0.004 0.00196,-0.0055 0.00119,-0.0024 0.00237,-0.0044 0.00355,-0.0067 0.00118,-0.002 0.00275,-0.004 0.00433,-0.0059 0.00551,-0.0079 0.0122,-0.0146 0.01535,-0.0209 0.00118,-0.0016 0.00158,-0.0028 0.00158,-0.0043 3.9e-4,-4e-4 3.9e-4,-4e-4 3.9e-4,-8e-4 l 12.65358,3.4116 c 0.0047,0.0216 0.0342,0.0137 0.0551,0.0149 z"
       fill="#be8f63"
       id="path13" />
    <path
       opacity="0.54"
       d="m 17.5946,27.951 -4e-4,0.033 c -0.024,0.0067 -0.0473,0.0056 -0.0697,-0.0047 L 5.54058,23.5088 C 5.49295,23.4887 5.47405,23.4505 5.46578,23.4021 Z"
       fill="url(#Parcel_Paint9_lLnear)"
       id="path14"
       style="fill:url(#Parcel_Paint9_lLnear)" />
    <path
       d="m 12.1768,20.9821 0.0752,4.3706 4.5536,1.6724 0.0119,-4.5245 z m 0.048,0.08 2.1932,0.7196 0.0185,2.1357 -2.1735,-0.7472 z m 0.076,4.2466 -0.0335,-2.0637 2.1688,0.757 0.0126,2.0909 z m 4.4604,1.6361 -2.2483,-0.826 -0.0111,-2.0963 2.2594,0.7854 z m 0,-2.2137 -2.2594,-0.7869 -0.0047,-2.1377 2.2641,0.7413 z"
       fill="#322212"
       id="path15" />
    <path
       d="m 16.2685,24.3832 -1.3491,-0.4658 v -0.2643 l 1.3491,0.4614 z"
       fill="#322212"
       id="path16" />
    <path
       d="m 15.1023,23.6668 0.2239,0.0779 v -0.9365 l 0.2238,0.076 -0.327,-0.6464 -0.3417,0.4282 0.2231,0.0717 z"
       fill="#322212"
       id="path17" />
    <path
       d="m 15.8406,23.9126 0.2238,0.0779 v -0.9364 l 0.2239,0.0759 -0.327,-0.6463 -0.3417,0.4281 0.2231,0.0718 z"
       fill="#322212"
       id="path18" />
    <path
       d="m 15.166,24.7001 -0.0666,0.0419 0.9772,1.5554 0.0667,-0.0419 z"
       fill="#322212"
       id="path19" />
    <path
       d="m 16.0652,25.0333 -0.9618,0.8428 0.0778,0.0888 0.9618,-0.8428 z"
       fill="#322212"
       id="path20" />
    <path
       d="m 15.0575,24.8796 v 0.8208 l 0.0903,0.0318 v -0.8234 z"
       fill="#322212"
       id="path21" />
    <path
       d="m 16.1029,25.2612 v 0.8208 l 0.0902,0.0318 v -0.8234 z"
       fill="#322212"
       id="path22" />
    <path
       d="m 15.3837,24.9565 0.2375,0.3816 0.2375,-0.2093 z"
       fill="#322212"
       id="path23" />
    <path
       d="m 15.9872,25.3576 v 0.5373 l -0.2434,-0.3427 z"
       fill="#322212"
       id="path24" />
    <path
       d="M 15.8596,26.0836 15.3914,25.9143 15.6255,25.705 Z"
       fill="#322212"
       id="path25" />
    <path
       d="m 15.26,25.6379 v -0.5374 l 0.2326,0.3582 z"
       fill="#322212"
       id="path26" />
    <path
       d="m 14.6244,25.0265 0.1158,0.0429 v -0.1986 l 0.2531,0.3991 -0.2511,0.2093 0.0049,-0.1957 -0.1227,-0.0292 z"
       fill="#322212"
       id="path27" />
    <path
       d="m 16.6208,25.9902 v -0.2326 l -0.1178,-0.038 v -0.2063 l -0.2598,0.2219 0.2598,0.3951 v -0.1869 z"
       fill="#322212"
       id="path28" />
    <path
       d="m 13.3173,24.1047 0.0133,1.2986 c 3e-4,0.059 -0.0288,0.0819 -0.0927,0.0676 -0.0754,-0.017 -0.0829,-0.0739 -0.0822,-0.1728 l -0.0623,-0.0097 c -0.013,0.1473 0.034,0.2341 0.146,0.2609 0.1236,0.0248 0.1733,-0.0399 0.1733,-0.1129 l -0.0078,-1.3043 z"
       fill="#322212"
       id="path29" />
    <path
       d="m 12.6787,24.4785 c 0.2005,-0.6054 1.1067,-0.402 1.3783,0.4906 -0.0827,-0.1392 -0.1547,-0.1645 -0.2842,-0.1216 -0.0477,-0.0993 -0.1869,-0.1509 -0.2716,-0.0983 -0.0623,-0.1188 -0.2044,-0.1558 -0.2715,-0.0974 -0.0283,-0.072 -0.1646,-0.1703 -0.2677,-0.0974 -0.0702,-0.1158 -0.2074,-0.1586 -0.2833,-0.0759 z"
       fill="#322212"
       id="path30" />
    <path
       d="m 13.7557,24.1632 c -0.0097,-0.0083 -0.0851,0.0239 -0.0929,0.0535 -0.0078,0.0297 0.0019,0.0502 0.0195,0.0633 0.0175,0.0132 0.0389,0.0127 0.052,0.0064 0.0311,-0.0205 0.0311,-0.1149 0.0214,-0.1232 z"
       fill="#322212"
       id="path31" />
    <path
       d="m 13.8816,23.949 c -0.0098,-0.0083 -0.0852,0.0239 -0.093,0.0536 -0.0078,0.0297 0.002,0.0501 0.0195,0.0632 0.0175,0.0132 0.0389,0.0127 0.0521,0.0064 0.0311,-0.0205 0.0311,-0.1149 0.0214,-0.1232 z"
       fill="#322212"
       id="path32" />
    <path
       d="m 13.5313,23.9406 c -0.0098,-0.0083 -0.0852,0.0238 -0.093,0.0535 -0.0078,0.0297 0.0019,0.0501 0.0195,0.0633 0.0175,0.0131 0.0389,0.0126 0.0521,0.0063 0.0311,-0.0204 0.0311,-0.1149 0.0214,-0.1231 z"
       fill="#322212"
       id="path33" />
    <path
       d="m 13.1783,23.8893 c -0.0098,-0.0083 -0.0852,0.0238 -0.093,0.0535 -0.0078,0.0297 0.002,0.0501 0.0195,0.0633 0.0176,0.0131 0.0389,0.0126 0.0521,0.0063 0.0311,-0.0204 0.0311,-0.1148 0.0214,-0.1231 z"
       fill="#322212"
       id="path34" />
    <path
       d="m 12.8259,23.1243 1.0162,0.353 -0.4205,-0.27 -0.0013,-0.5061 c 0.292,0.1194 0.4997,-0.1207 0.4997,-0.3128 v -0.5035 l -0.9163,-0.3024 0.0791,0.366 -0.0778,0.0013 0.1363,0.5256 -0.2633,-0.6378 0.092,0.0058 -0.0831,-0.2985 -0.1778,-0.0584 0.0169,0.51 c 0,0.2129 0.2103,0.5607 0.4997,0.6476 l 0.0078,0.501 z"
       fill="#322212"
       id="path35" />
    <path
       d="m 17.6804,16.4958 c -0.0496,0.0012 -0.087,0.0673 -0.0882,0.1272 l -0.0118,0.0055 -12.637,-3.5053 c -0.00119,-0.024 0.02598,-0.0394 0.02834,-0.054 7.9e-4,-0.0015 7.9e-4,-0.0027 3.9e-4,-0.0043 -0.00866,-0.0386 -0.08188,-0.1846 -0.10589,-0.2 L 0,10.0993 0.0413362,10.006 13.124,13.3625 l 0.0016,4e-4 4.3233,2.8014 c 0.1614,0.1008 0.1736,0.2118 0.1756,0.3118 0,0.0016 4e-4,0.0032 8e-4,0.0047 0.0047,0.0217 0.0342,0.0138 0.0551,0.015 z"
       fill="url(#Parcel_Paint10_Linear)"
       id="path36"
       style="fill:url(#Parcel_Paint10_Linear)" />
    <path
       d="m 11.9994,17.641 c 0.0135,0.0042 0.0188,0.0055 0.0185,-0.0068 L 11.9705,15.0913 C 11.9673,15.0044 11.9451,14.8352 11.8414,14.7665 L 7.23221,11.9661 5.07257,11.4087 9.75611,14.2073 c 0.1181,0.0769 0.12794,0.2227 0.13266,0.3299 l 0.06725,2.4726 c 2.7e-4,0.0128 0.00212,0.0153 0.01169,0.0191 z"
       fill="url(#Parcel_Paint11_Linear)"
       id="path37"
       style="fill:url(#Parcel_Paint11_Linear)" />
    <path
       d="m 17.6804,16.4958 c -0.0512,0.0012 -0.0894,0.0713 -0.0882,0.1327 -8e-4,0.0047 -0.0103,0.0035 -0.0118,0 -0.0095,-0.1366 -0.0662,-0.2882 -0.1406,-0.3425 l -4.3583,-2.8101 0.0425,-0.1134 0.0016,4e-4 4.3233,2.8014 c 0.1614,0.1008 0.1736,0.2118 0.1756,0.3118 0,0.0016 3e-4,0.0032 7e-4,0.0047 0.0048,0.0217 0.0343,0.0138 0.0552,0.015 z"
       fill="#d4a271"
       id="path38" />
    <path
       d="M 13.124,13.3625 13.0815,13.4759 0,10.0993 0.0413362,10.006 Z"
       fill="#deb37e"
       id="path39" />
    <path
       d="m 26.9944,12.2858 -0.5,10.0092 c -0.0075,0.0638 -0.0374,0.0827 -0.1015,0.1264 l -8.7601,5.5453 c -0.013,0.0083 -0.026,0.0142 -0.0386,0.0173 l 0.0862,-11.4882 c 0.022,0.0012 0.0437,0.0126 0.0492,-0.0138 4e-4,-0.0031 8e-4,-0.0063 0.0016,-0.0094 l 9.2608,-4.1962 c 4e-4,0.0035 0.0012,0.0067 0.0024,0.0094 z"
       fill="#dbac76"
       id="path40" />
    <path
       opacity="0.54"
       d="m 26.4948,22.2903 -4e-4,0.0047 c -0.0075,0.0638 -0.0374,0.0827 -0.1015,0.1264 l -8.7601,5.5453 c -0.013,0.0083 -0.026,0.0142 -0.0386,0.0174 l 4e-4,-0.0331 z"
       fill="url(#Parcel_Paint12_Linear)"
       id="path41"
       style="fill:url(#Parcel_Paint12_Linear)" />
    <path
       d="m 23.3683,19.5825 -0.1495,4.2411 2.9129,-1.8136 0.2005,-4.0755 z m 0.035,0.0447 1.462,-0.8196 -0.088,2.0111 -1.4509,0.8555 z m -0.1452,4.1162 0.0683,-2.0068 1.4476,-0.8509 -0.075,1.9616 z m 2.8454,-1.7742 -1.3645,0.8585 0.0762,-1.9662 1.3798,-0.8167 z m 0.0973,-1.9964 -1.3881,0.8303 0.087,-2.0108 1.3994,-0.7828 z"
       fill="#322212"
       id="path42" />
    <path
       d="m 25.9185,19.9815 -0.8196,0.4857 0.0107,-0.2414 0.8263,-0.4825 z"
       fill="#322212"
       id="path43" />
    <path
       d="m 25.2299,20.1041 0.1298,-0.0749 0.0411,-0.8585 0.1371,-0.0769 -0.182,-0.3816 -0.2317,0.6113 0.1304,-0.0778 z"
       fill="#322212"
       id="path44" />
    <path
       d="m 25.6732,19.8471 0.1396,-0.0777 0.0298,-0.8527 0.145,-0.0818 -0.1762,-0.3757 -0.2307,0.6064 0.1363,-0.0779 z"
       fill="#322212"
       id="path45" />
    <path
       d="m 25.7165,21.8556 -0.5405,-0.7385 0.0454,-0.085 0.5342,0.7377 z"
       fill="#322212"
       id="path46" />
    <path
       d="m 25.1715,22.1917 -0.0421,-0.0376 0.6394,-1.4468 0.0401,0.0382 z"
       fill="#322212"
       id="path47" />
    <path
       d="m 25.1417,21.2841 -0.0317,0.751 0.0565,-0.0374 0.0318,-0.7533 z"
       fill="#322212"
       id="path48" />
    <path
       d="m 25.7782,20.8939 -0.0337,0.7521 0.0499,-0.0331 0.0358,-0.7521 z"
       fill="#322212"
       id="path49" />
    <path
       d="m 25.3415,21.1171 0.1337,0.1811 0.1551,-0.355 z"
       fill="#322212"
       id="path50" />
    <path
       d="M 25.7011,21.0788 25.6808,21.5591 25.551,21.404 Z"
       fill="#322212"
       id="path51" />
    <path
       d="m 25.5966,21.8147 -0.2882,0.175 0.1545,-0.3521 z"
       fill="#322212"
       id="path52" />
    <path
       d="m 25.2389,21.8167 0.0222,-0.4698 0.1324,0.1641 z"
       fill="#322212"
       id="path53" />
    <path
       d="m 24.8522,21.72 0.0706,-0.0413 0.0053,-0.1871 0.1564,0.1901 -0.1656,0.3575 -5e-4,-0.1576 -0.0701,0.0429 z"
       fill="#322212"
       id="path54" />
    <path
       d="m 26.0678,21.2001 0.0083,-0.2043 -0.0727,0.0396 0.0078,-0.1849 -0.1674,0.3789 0.1512,0.1804 0.003,-0.1685 z"
       fill="#322212"
       id="path55" />
    <path
       d="m 24.0271,21.7862 -0.0448,1.2206 c -0.0021,0.0538 0.0088,0.111 -0.0515,0.147 -0.0499,0.0297 -0.0744,0.0023 -0.0701,-0.0886 l -0.0487,0.038 c -0.014,0.1443 0.0886,0.1304 0.1277,0.1122 0.0835,-0.051 0.0876,-0.1224 0.0904,-0.1892 l 0.052,-1.2796 z"
       fill="#322212"
       id="path56" />
    <path
       d="m 23.5599,22.634 c 0.1568,-0.7183 0.7729,-1.1934 0.9247,-0.5597 -0.0475,-0.0664 -0.1333,-0.0399 -0.1917,0.0944 -0.0267,-0.0557 -0.1597,-0.0097 -0.1801,0.1071 -0.0353,-0.0628 -0.1616,0.0049 -0.1801,0.1083 -0.0152,-0.0451 -0.1594,-0.017 -0.1771,0.1117 -0.0404,-0.0543 -0.1528,-10e-4 -0.1957,0.1382 z"
       fill="#322212"
       id="path57" />
    <path
       d="m 24.3107,21.537 c -0.0059,-4e-4 -0.0554,0.0845 -0.0616,0.1174 -0.0061,0.033 -7e-4,0.0445 0.01,0.0436 0.0107,-9e-4 0.0245,-0.0171 0.0331,-0.0326 0.0208,-0.0416 0.0244,-0.128 0.0185,-0.1284 z"
       fill="#322212"
       id="path58" />
    <path
       d="m 24.4074,21.2328 c -0.0059,-4e-4 -0.0554,0.0846 -0.0615,0.1175 -0.0062,0.0329 -8e-4,0.0444 0.0099,0.0435 0.0107,-8e-4 0.0245,-0.0171 0.0331,-0.0325 0.0207,-0.0417 0.0244,-0.1281 0.0185,-0.1285 z"
       fill="#322212"
       id="path59" />
    <path
       d="m 24.1737,21.4802 c -0.006,-4e-4 -0.0555,0.0846 -0.0617,0.1175 -0.0061,0.0329 -7e-4,0.0444 0.0101,0.0435 0.0107,-8e-4 0.0244,-0.0171 0.033,-0.0325 0.0208,-0.0417 0.0245,-0.1281 0.0186,-0.1285 z"
       fill="#322212"
       id="path60" />
    <path
       d="m 23.9312,21.6923 c -0.0059,-4e-4 -0.0554,0.0846 -0.0615,0.1175 -0.0062,0.0329 -7e-4,0.0444 0.01,0.0435 0.0107,-8e-4 0.0244,-0.0171 0.033,-0.0325 0.0208,-0.0417 0.0244,-0.1281 0.0185,-0.1285 z"
       fill="#322212"
       id="path61" />
    <path
       d="m 23.7284,21.2002 0.6785,-0.3923 -0.2783,0.0594 0.0224,-0.4867 c 0.2092,-0.1324 0.3489,-0.4494 0.3563,-0.6251 l 0.0184,-0.5147 -0.6035,0.3475 0.0389,0.3037 -0.0497,0.0569 0.0562,0.3867 -0.1467,-0.4242 0.0662,-0.0535 -0.0399,-0.2278 -0.1227,0.0662 -0.0165,0.473 c -0.0082,0.1947 0.1363,0.3874 0.3173,0.2833 l -0.0156,0.4779 z"
       fill="#322212"
       id="path62" />
    <path
       d="m 27.114,12.0268 c -0.0944,0.0952 -0.1385,0.2118 -0.1196,0.259 l -9.2042,4.3545 -0.0193,-0.015 c -8e-4,-0.072 -0.0476,-0.1208 -0.0827,-0.1287 0.0193,0.0027 0.0367,0.0086 0.0414,-0.0146 0.0023,-0.0149 0.0067,-0.0323 0.013,-0.0516 0.0055,-0.0165 0.0122,-0.0342 0.0208,-0.0527 0.0264,-0.0595 0.0666,-0.1256 0.117,-0.1819 0.007,-0.0079 0.0145,-0.0157 0.022,-0.0232 L 22.8942,11.5048 31.9452,7.65735 32,7.73333 Z"
       fill="#ce9c6b"
       id="path63" />
    <path
       d="m 22.9678,11.6028 -4.9493,4.6005 c -0.1405,0.1342 -0.2326,0.3334 -0.2283,0.437 -0.0027,0.0051 -0.0146,0.0082 -0.0197,0 0.0063,-0.0799 -0.0449,-0.1355 -0.0823,-0.1437 0.0193,0.0027 0.0367,0.0086 0.0414,-0.0146 0.0023,-0.0149 0.0067,-0.0323 0.013,-0.0516 0.0055,-0.0165 0.0122,-0.0342 0.0208,-0.0527 0.03,-0.0677 0.0784,-0.1449 0.139,-0.2051 l 4.9918,-4.6678 z"
       fill="#d7a977"
       id="path64" />
    <path
       d="m 21.8762,17.1834 c 0,0.0143 0.0058,0.0194 0.0154,0.016 l 1.4866,-0.7624 c 0.0029,-0.0017 0.0042,-0.0039 0.0044,-0.0086 l 0.0823,-2.4365 c 0.0022,-0.1339 0.0773,-0.2662 0.1796,-0.3576 l 4.9359,-4.43612 -1.5019,0.6435 -4.9611,4.49472 c -0.1278,0.125 -0.1714,0.2727 -0.1739,0.3969 z"
       fill="url(#Parcel_Paint13_Linear)"
       id="path65"
       style="fill:url(#Parcel_Paint13_Linear)" />
    <path
       d="M 22.9678,11.6029 31.9999,7.73314 31.9452,7.65732 22.8943,11.5047 Z"
       fill="#f8ce92"
       id="path66" />
  </g>
  <defs
     id="defs116">
    <linearGradient
       id="Parcel_Paint0_lLnear"
       x1="21.9545"
       y1="25.1369"
       x2="22.0345"
       y2="25.263399"
       gradientUnits="userSpaceOnUse">
      <stop
         id="stop66" />
      <stop
         offset="1"
         stopOpacity="0"
         id="stop67" />
    </linearGradient>
    <linearGradient
       id="Parcel_Paint1_lLnear"
       x1="11.5704"
       y1="25.7402"
       x2="11.5461"
       y2="25.805401"
       gradientUnits="userSpaceOnUse">
      <stop
         id="stop68" />
      <stop
         offset="1"
         stopOpacity="0"
         id="stop69" />
    </linearGradient>
    <linearGradient
       id="Parcel_Paint2_lLnear"
       x1="12.7361"
       y1="11.318"
       x2="15.0914"
       y2="12.2943"
       gradientUnits="userSpaceOnUse">
      <stop
         offset="0.3927"
         stopColor="#C37A45"
         id="stop70" />
      <stop
         offset="0.432"
         stopColor="#BD7440"
         id="stop71" />
      <stop
         offset="0.6362"
         stopColor="#A1582A"
         id="stop72" />
      <stop
         offset="0.7542"
         stopColor="#964D22"
         id="stop73" />
    </linearGradient>
    <linearGradient
       id="Parcel_Paint3_lLnear"
       x1="9.8066702"
       y1="10.7513"
       x2="6.72967"
       y2="6.4324698"
       gradientUnits="userSpaceOnUse">
      <stop
         stopColor="#E9B880"
         id="stop74" />
      <stop
         offset="1"
         stopColor="#E4AE76"
         id="stop75" />
    </linearGradient>
    <linearGradient
       id="Parcel_Paint4_lLnear"
       x1="11.2242"
       y1="10.9542"
       x2="11.0767"
       y2="10.5477"
       gradientUnits="userSpaceOnUse">
      <stop
         offset="0.1126"
         stopColor="#C37A45"
         stopOpacity="0"
         id="stop76" />
      <stop
         offset="0.1334"
         stopColor="#C37A45"
         id="stop77" />
      <stop
         offset="0.2525"
         stopColor="#CE8A52"
         id="stop78" />
      <stop
         offset="0.4755"
         stopColor="#DFA167"
         id="stop79" />
      <stop
         offset="0.6843"
         stopColor="#E9AF73"
         id="stop80" />
      <stop
         offset="0.8631"
         stopColor="#ECB477"
         id="stop81" />
      <stop
         offset="1"
         stopColor="#ECB477"
         stopOpacity="0"
         id="stop82" />
    </linearGradient>
    <linearGradient
       id="Parcel_Paint5_lLnear"
       x1="18.8451"
       y1="10.9389"
       x2="16.764299"
       y2="15.7212"
       gradientUnits="userSpaceOnUse">
      <stop
         offset="0.0881"
         stopColor="#AF6938"
         id="stop83" />
      <stop
         offset="0.4471"
         stopColor="#9B5326"
         id="stop84" />
      <stop
         offset="0.7792"
         stopColor="#8D4419"
         id="stop85" />
    </linearGradient>
    <linearGradient
       id="Parcel_Paint6_lLnear"
       x1="21.205299"
       y1="10.486"
       x2="23.5478"
       y2="6.2743702"
       gradientUnits="userSpaceOnUse">
      <stop
         offset="0.0327"
         stopColor="#E4AE76"
         id="stop86" />
      <stop
         offset="1"
         stopColor="#E9B880"
         id="stop87" />
    </linearGradient>
    <linearGradient
       id="Parcel_Paint7_lLnear"
       x1="19.274401"
       y1="10.5865"
       x2="19.367001"
       y2="10.176"
       gradientUnits="userSpaceOnUse">
      <stop
         stopColor="#AF6938"
         stopOpacity="0"
         id="stop88" />
      <stop
         offset="0.086"
         stopColor="#AF6938"
         id="stop89" />
      <stop
         offset="0.1429"
         stopColor="#B4703E"
         id="stop90" />
      <stop
         offset="0.5645"
         stopColor="#D79D66"
         id="stop91" />
      <stop
         offset="0.7771"
         stopColor="#E4AE76"
         id="stop92" />
      <stop
         offset="0.9239"
         stopColor="#E4AE76"
         stopOpacity="0"
         id="stop93" />
    </linearGradient>
    <linearGradient
       id="Parcel_Paint8_lLnear"
       x1="14.7412"
       y1="12.1126"
       x2="15.1036"
       y2="12.1126"
       gradientUnits="userSpaceOnUse">
      <stop
         stopColor="#743E18"
         stopOpacity="0"
         id="stop94" />
      <stop
         offset="0.4929"
         stopColor="#743E18"
         stopOpacity="0.8872"
         id="stop95" />
      <stop
         offset="0.5"
         stopColor="#743E18"
         stopOpacity="0.9"
         id="stop96" />
      <stop
         offset="0.5297"
         stopColor="#743E18"
         stopOpacity="0.8466"
         id="stop97" />
      <stop
         offset="1"
         stopColor="#743E18"
         stopOpacity="0"
         id="stop98" />
    </linearGradient>
    <linearGradient
       id="Parcel_Paint9_lLnear"
       x1="11.5186"
       y1="25.723499"
       x2="11.5303"
       y2="25.6922"
       gradientUnits="userSpaceOnUse">
      <stop
         stopColor="#322212"
         id="stop99" />
      <stop
         offset="0.2397"
         stopColor="#322212"
         stopOpacity="0.9891"
         id="stop100" />
      <stop
         offset="1"
         stopColor="#322212"
         stopOpacity="0"
         id="stop101" />
    </linearGradient>
    <linearGradient
       id="Parcel_Paint10_Linear"
       x1="9.0840197"
       y1="12.4839"
       x2="8.6126499"
       y2="14.057"
       gradientUnits="userSpaceOnUse">
      <stop
         offset="0.0476"
         stopColor="#C69867"
         id="stop102" />
      <stop
         offset="0.4313"
         stopColor="#BB8C5F"
         id="stop103" />
      <stop
         offset="0.8135"
         stopColor="#B6875B"
         id="stop104" />
    </linearGradient>
    <linearGradient
       id="Parcel_Paint11_Linear"
       x1="11.775"
       y1="16.8622"
       x2="6.2459402"
       y2="10.7215"
       gradientUnits="userSpaceOnUse">
      <stop
         offset="0.4202"
         stopColor="#835F36"
         id="stop105" />
      <stop
         offset="0.4308"
         stopColor="#91663D"
         id="stop106" />
      <stop
         offset="0.4407"
         stopColor="#976A40"
         id="stop107" />
      <stop
         offset="0.8737"
         stopColor="#976A40"
         id="stop108" />
      <stop
         offset="0.8982"
         stopColor="#AB8157"
         id="stop109" />
    </linearGradient>
    <linearGradient
       id="Parcel_Paint12_Linear"
       x1="22.044901"
       y1="25.1378"
       x2="22.0546"
       y2="25.1532"
       gradientUnits="userSpaceOnUse">
      <stop
         stopColor="#322212"
         stopOpacity="0"
         id="stop110" />
      <stop
         offset="1"
         stopColor="#322212"
         id="stop111" />
    </linearGradient>
    <linearGradient
       id="Parcel_Paint13_Linear"
       x1="24.198601"
       y1="17.320299"
       x2="25.872299"
       y2="8.8569002"
       gradientUnits="userSpaceOnUse">
      <stop
         offset="0.3676"
         stopColor="#A9794B"
         id="stop112" />
      <stop
         offset="0.3857"
         stopColor="#AE7F53"
         id="stop113" />
      <stop
         offset="0.4167"
         stopColor="#AD7E51"
         id="stop114" />
      <stop
         offset="0.6236"
         stopColor="#A9794B"
         id="stop115" />
      <stop
         offset="0.6426"
         stopColor="#B2875D"
         id="stop116" />
    </linearGradient>
  </defs>
</svg>
