<?xml version="1.0" encoding="UTF-8" standalone="no"?>
<svg
   id="Layer_1"
   viewBox="0 0 2.688 2.688"
   width="32"
   height="32"
   version="1.1"
   sodipodi:docname="prettier.svg"
   inkscape:version="1.3.2 (091e20e, 2023-11-25)"
   xmlns:inkscape="http://www.inkscape.org/namespaces/inkscape"
   xmlns:sodipodi="http://sodipodi.sourceforge.net/DTD/sodipodi-0.dtd"
   xmlns="http://www.w3.org/2000/svg"
   xmlns:svg="http://www.w3.org/2000/svg"
   xmlns:rdf="http://www.w3.org/1999/02/22-rdf-syntax-ns#"
   xmlns:cc="http://creativecommons.org/ns#"
   xmlns:dc="http://purl.org/dc/elements/1.1/">
  <defs
     id="defs1" />
  <sodipodi:namedview
     id="namedview1"
     pagecolor="#505050"
     bordercolor="#ffffff"
     borderopacity="1"
     inkscape:showpageshadow="0"
     inkscape:pageopacity="0"
     inkscape:pagecheckerboard="1"
     inkscape:deskcolor="#505050"
     inkscape:zoom="0.31"
     inkscape:cx="1250"
     inkscape:cy="1250"
     inkscape:window-width="1392"
     inkscape:window-height="950"
     inkscape:window-x="0"
     inkscape:window-y="25"
     inkscape:window-maximized="0"
     inkscape:current-layer="Layer_1" />
  <style
     id="style1">.st0{fill:#56b3b4}.st1{fill:#ea5e5e}.st2{fill:#bf85bf}.st3{fill:#f7ba3e}.st4{opacity:.5;fill:#4d616e;enable-background:new}</style>
  <title
     id="title1">prettier-icon-dark</title>
  <g
     id="Page-1"
     transform="scale(0.0128)">
    <g
       id="prettier-icon-dark">
      <g
         id="Icon-_x28_Dark_x29_">
        <g
           id="Group">
          <path
             id="Rectangle"
             class="st0"
             d="m 155,40 h 10 c 2.8,0 5,2.2 5,5 0,2.8 -2.2,5 -5,5 h -10 c -2.8,0 -5,-2.2 -5,-5 0,-2.8 2.2,-5 5,-5 z" />
          <path
             id="Rectangle_1_"
             class="st1"
             d="m 5,200 h 50 c 2.8,0 5,2.2 5,5 0,2.8 -2.2,5 -5,5 H 5 c -2.8,0 -5,-2.2 -5,-5 0,-2.8 2.2,-5 5,-5 z" />
          <path
             id="Rectangle_2_"
             class="st2"
             d="m 125,120 h 30 c 2.8,0 5,2.2 5,5 0,2.8 -2.2,5 -5,5 h -30 c -2.8,0 -5,-2.2 -5,-5 0,-2.8 2.2,-5 5,-5 z" />
          <path
             id="Rectangle_3_"
             class="st1"
             d="m 65,120 h 40 c 2.8,0 5,2.2 5,5 0,2.8 -2.2,5 -5,5 H 65 c -2.8,0 -5,-2.2 -5,-5 0,-2.8 2.2,-5 5,-5 z" />
          <path
             id="Rectangle_4_"
             class="st0"
             d="m 5,120 h 40 c 2.8,0 5,2.2 5,5 0,2.8 -2.2,5 -5,5 H 5 c -2.8,0 -5,-2.2 -5,-5 0,-2.8 2.2,-5 5,-5 z" />
          <path
             id="Rectangle_5_"
             class="st2"
             d="m 5,160 h 50 c 2.8,0 5,2.2 5,5 0,2.8 -2.2,5 -5,5 H 5 c -2.8,0 -5,-2.2 -5,-5 0,-2.8 2.2,-5 5,-5 z" />
          <path
             id="Rectangle_6_"
             class="st2"
             d="m 5,80 h 50 c 2.8,0 5,2.2 5,5 0,2.8 -2.2,5 -5,5 H 5 C 2.2,90 0,87.8 0,85 0,82.2 2.2,80 5,80 Z" />
          <path
             id="Rectangle_7_"
             class="st3"
             d="m 55,20 h 100 c 2.8,0 5,2.2 5,5 0,2.8 -2.2,5 -5,5 H 55 c -2.8,0 -5,-2.2 -5,-5 0,-2.8 2.2,-5 5,-5 z" />
          <path
             id="Rectangle_8_"
             class="st1"
             d="m 5,20 h 30 c 2.8,0 5,2.2 5,5 0,2.8 -2.2,5 -5,5 H 5 C 2.2,30 0,27.8 0,25 0,22.2 2.2,20 5,20 Z" />
          <path
             id="Rectangle_9_"
             class="st3"
             d="m 45,180 h 10 c 2.8,0 5,2.2 5,5 0,2.8 -2.2,5 -5,5 H 45 c -2.8,0 -5,-2.2 -5,-5 0,-2.8 2.2,-5 5,-5 z" />
          <path
             id="Rectangle_10_"
             class="st0"
             d="m 45,60 h 10 c 2.8,0 5,2.2 5,5 0,2.8 -2.2,5 -5,5 H 45 c -2.8,0 -5,-2.2 -5,-5 0,-2.8 2.2,-5 5,-5 z" />
          <path
             id="Rectangle_11_"
             class="st0"
             d="m 5,180 h 20 c 2.8,0 5,2.2 5,5 0,2.8 -2.2,5 -5,5 H 5 c -2.8,0 -5,-2.2 -5,-5 0,-2.8 2.2,-5 5,-5 z" />
          <path
             id="Rectangle_12_"
             class="st3"
             d="m 5,60 h 20 c 2.8,0 5,2.2 5,5 0,2.8 -2.2,5 -5,5 H 5 C 2.2,70 0,67.8 0,65 0,62.2 2.2,60 5,60 Z" />
          <path
             id="Rectangle_13_"
             class="st4"
             d="m 135,180 h 10 c 2.8,0 5,2.2 5,5 0,2.8 -2.2,5 -5,5 h -10 c -2.8,0 -5,-2.2 -5,-5 0,-2.8 2.2,-5 5,-5 z" />
          <path
             id="Rectangle_14_"
             class="st4"
             d="m 75,180 h 40 c 2.8,0 5,2.2 5,5 0,2.8 -2.2,5 -5,5 H 75 c -2.8,0 -5,-2.2 -5,-5 0,-2.8 2.2,-5 5,-5 z" />
          <path
             id="Rectangle_15_"
             class="st4"
             d="m 165,180 h 40 c 2.8,0 5,2.2 5,5 0,2.8 -2.2,5 -5,5 h -40 c -2.8,0 -5,-2.2 -5,-5 0,-2.8 2.2,-5 5,-5 z" />
          <path
             id="Rectangle_16_"
             class="st0"
             d="m 85,100 h 80 c 2.8,0 5,2.2 5,5 0,2.8 -2.2,5 -5,5 H 85 c -2.8,0 -5,-2.2 -5,-5 0,-2.8 2.2,-5 5,-5 z" />
          <path
             id="Rectangle_17_"
             class="st3"
             d="m 35,100 h 30 c 2.8,0 5,2.2 5,5 0,2.8 -2.2,5 -5,5 H 35 c -2.8,0 -5,-2.2 -5,-5 0,-2.8 2.2,-5 5,-5 z" />
          <path
             id="Rectangle_18_"
             class="st1"
             d="m 5,100 h 10 c 2.8,0 5,2.2 5,5 0,2.8 -2.2,5 -5,5 H 5 c -2.8,0 -5,-2.2 -5,-5 0,-2.8 2.2,-5 5,-5 z" />
          <path
             id="Rectangle_19_"
             class="st2"
             d="m 95,40 h 40 c 2.8,0 5,2.2 5,5 0,2.8 -2.2,5 -5,5 H 95 c -2.8,0 -5,-2.2 -5,-5 0,-2.8 2.2,-5 5,-5 z" />
          <path
             id="Rectangle_20_"
             class="st0"
             d="m 5,40 h 70 c 2.8,0 5,2.2 5,5 0,2.8 -2.2,5 -5,5 H 5 C 2.2,50 0,47.8 0,45 0,42.2 2.2,40 5,40 Z" />
          <path
             id="Rectangle_21_"
             class="st3"
             d="m 35,140 h 90 c 2.8,0 5,2.2 5,5 0,2.8 -2.2,5 -5,5 H 35 c -2.8,0 -5,-2.2 -5,-5 0,-2.8 2.2,-5 5,-5 z" />
          <path
             id="Rectangle_22_"
             class="st2"
             d="m 5,140 h 10 c 2.8,0 5,2.2 5,5 0,2.8 -2.2,5 -5,5 H 5 c -2.8,0 -5,-2.2 -5,-5 0,-2.8 2.2,-5 5,-5 z" />
          <path
             id="Rectangle_23_"
             class="st1"
             d="m 125,60 h 50 c 2.8,0 5,2.2 5,5 0,2.8 -2.2,5 -5,5 h -50 c -2.8,0 -5,-2.2 -5,-5 0,-2.8 2.2,-5 5,-5 z" />
          <path
             id="Rectangle_24_"
             class="st3"
             d="m 125,80 h 50 c 2.8,0 5,2.2 5,5 0,2.8 -2.2,5 -5,5 h -50 c -2.8,0 -5,-2.2 -5,-5 0,-2.8 2.2,-5 5,-5 z" />
          <path
             id="Rectangle_25_"
             class="st0"
             d="m 5,0 h 120 c 2.8,0 5,2.2 5,5 0,2.8 -2.2,5 -5,5 H 5 C 2.2,10 0,7.8 0,5 0,2.2 2.2,0 5,0 Z" />
          <path
             id="Rectangle_26_"
             class="st4"
             d="m 145,0 h 60 c 2.8,0 5,2.2 5,5 0,2.8 -2.2,5 -5,5 h -60 c -2.8,0 -5,-2.2 -5,-5 0,-2.8 2.2,-5 5,-5 z" />
          <path
             id="Rectangle_27_"
             class="st4"
             d="m 145,140 h 20 c 2.8,0 5,2.2 5,5 0,2.8 -2.2,5 -5,5 h -20 c -2.8,0 -5,-2.2 -5,-5 0,-2.8 2.2,-5 5,-5 z" />
          <path
             id="Rectangle_28_"
             class="st4"
             d="m 185,140 h 20 c 2.8,0 5,2.2 5,5 0,2.8 -2.2,5 -5,5 h -20 c -2.8,0 -5,-2.2 -5,-5 0,-2.8 2.2,-5 5,-5 z" />
          <path
             id="Rectangle_29_"
             class="st4"
             d="m 175,120 h 30 c 2.8,0 5,2.2 5,5 0,2.8 -2.2,5 -5,5 h -30 c -2.8,0 -5,-2.2 -5,-5 0,-2.8 2.2,-5 5,-5 z" />
          <path
             id="Rectangle_30_"
             class="st4"
             d="m 175,20 h 30 c 2.8,0 5,2.2 5,5 0,2.8 -2.2,5 -5,5 h -30 c -2.8,0 -5,-2.2 -5,-5 0,-2.8 2.2,-5 5,-5 z" />
          <path
             id="Rectangle_31_"
             class="st4"
             d="m 185,100 h 20 c 2.8,0 5,2.2 5,5 0,2.8 -2.2,5 -5,5 h -20 c -2.8,0 -5,-2.2 -5,-5 0,-2.8 2.2,-5 5,-5 z" />
          <path
             id="Rectangle_32_"
             class="st4"
             d="m 185,40 h 20 c 2.8,0 5,2.2 5,5 0,2.8 -2.2,5 -5,5 h -20 c -2.8,0 -5,-2.2 -5,-5 0,-2.8 2.2,-5 5,-5 z" />
          <path
             id="Rectangle_33_"
             class="st4"
             d="m 195,60 h 10 c 2.8,0 5,2.2 5,5 0,2.8 -2.2,5 -5,5 h -10 c -2.8,0 -5,-2.2 -5,-5 0,-2.8 2.2,-5 5,-5 z" />
          <path
             id="Rectangle_34_"
             class="st4"
             d="m 195,80 h 10 c 2.8,0 5,2.2 5,5 0,2.8 -2.2,5 -5,5 h -10 c -2.8,0 -5,-2.2 -5,-5 0,-2.8 2.2,-5 5,-5 z" />
          <path
             id="Rectangle_35_"
             class="st4"
             d="m 115,160 h 90 c 2.8,0 5,2.2 5,5 0,2.8 -2.2,5 -5,5 h -90 c -2.8,0 -5,-2.2 -5,-5 0,-2.8 2.2,-5 5,-5 z" />
          <path
             id="Rectangle_36_"
             class="st4"
             d="m 75,160 h 20 c 2.8,0 5,2.2 5,5 0,2.8 -2.2,5 -5,5 H 75 c -2.8,0 -5,-2.2 -5,-5 0,-2.8 2.2,-5 5,-5 z" />
          <path
             id="Rectangle_37_"
             class="st4"
             d="m 155,200 h 50 c 2.8,0 5,2.2 5,5 0,2.8 -2.2,5 -5,5 h -50 c -2.8,0 -5,-2.2 -5,-5 0,-2.8 2.2,-5 5,-5 z" />
          <path
             id="Rectangle_38_"
             class="st4"
             d="m 75,200 h 60 c 2.8,0 5,2.2 5,5 0,2.8 -2.2,5 -5,5 H 75 c -2.8,0 -5,-2.2 -5,-5 0,-2.8 2.2,-5 5,-5 z" />
          <path
             id="Rectangle_39_"
             class="st4"
             d="m 75,60 h 30 c 2.8,0 5,2.2 5,5 0,2.8 -2.2,5 -5,5 H 75 c -2.8,0 -5,-2.2 -5,-5 0,-2.8 2.2,-5 5,-5 z" />
          <path
             id="Rectangle_40_"
             class="st4"
             d="m 75,80 h 30 c 2.8,0 5,2.2 5,5 0,2.8 -2.2,5 -5,5 H 75 c -2.8,0 -5,-2.2 -5,-5 0,-2.8 2.2,-5 5,-5 z" />
        </g>
      </g>
    </g>
  </g>
  <metadata
     id="metadata1">
    <rdf:RDF>
      <cc:Work
         rdf:about="">
        <dc:title>prettier-icon-dark</dc:title>
      </cc:Work>
    </rdf:RDF>
  </metadata>
</svg>
