<?xml version="1.0" encoding="UTF-8" standalone="no"?>
<!-- Uploaded to: SVG Repo, www.svgrepo.com, Generator: SVG Repo Mixer Tools -->

<svg
   width="32"
   height="48"
   viewBox="-63.5 0 15.32 22.98"
   version="1.1"
   preserveAspectRatio="xMidYMid"
   id="svg5"
   sodipodi:docname="puppeteer.svg"
   inkscape:version="1.3.2 (091e20e, 2023-11-25)"
   xmlns:inkscape="http://www.inkscape.org/namespaces/inkscape"
   xmlns:sodipodi="http://sodipodi.sourceforge.net/DTD/sodipodi-0.dtd"
   xmlns="http://www.w3.org/2000/svg"
   xmlns:svg="http://www.w3.org/2000/svg">
  <defs
     id="defs5" />
  <sodipodi:namedview
     id="namedview5"
     pagecolor="#505050"
     bordercolor="#ffffff"
     borderopacity="1"
     inkscape:showpageshadow="0"
     inkscape:pageopacity="0"
     inkscape:pagecheckerboard="1"
     inkscape:deskcolor="#505050"
     inkscape:zoom="0.96875"
     inkscape:cx="398.96774"
     inkscape:cy="397.93548"
     inkscape:window-width="1392"
     inkscape:window-height="950"
     inkscape:window-x="0"
     inkscape:window-y="25"
     inkscape:window-maximized="0"
     inkscape:current-layer="svg5" />
  <g
     id="g5"
     transform="matrix(0.05984375,0,0,0.06013416,-63.5,0)">
    <path
       d="M 253.4216,214.24612 H 2.1916 v -14.168 c 0,-9.52 7.717,-17.237 17.236,-17.237 h 216.757 c 9.52,0 17.237,7.717 17.237,17.237 z"
       fill="#dfdedf"
       id="path1" />
    <path
       d="M 235.9192,378.55282 H 19.6932 c -9.666,0 -17.502,-7.836 -17.502,-17.502 v -146.805 h 251.23 v 146.805 c 0,9.666 -7.835,17.502 -17.502,17.502"
       fill="#ffffff"
       id="path2" />
    <path
       d="m 250.302,211.39752 v -12.706 c 0,-7.501 -6.08,-13.582 -13.581,-13.582 H 19.279 c -7.501,0 -13.581,6.081 -13.581,13.582 v 12.706 z m 0,151.469 v -145.771 H 5.698 v 145.771 c 0,7.501 6.08,13.581 13.581,13.581 h 217.442 c 7.501,0 13.581,-6.08 13.581,-13.581 z m -229.748,-183.454 0.846,-9.236 -3.592,9.31 c 0.487,-0.037 0.974,-0.074 1.471,-0.074 z m 213.401,-15.57 1.254,15.57 h 1.512 c 0.809,0 1.601,0.066 2.384,0.163 z m 17.247,22.164 c 2.977,3.394 4.798,7.826 4.798,12.685 v 164.175 c 0,10.631 -8.649,19.279 -19.279,19.279 H 19.279 c -10.63,0 -19.279,-8.648 -19.279,-19.279 v -164.175 c 0,-5.152 2.043,-9.827 5.347,-13.29 l 19.22,-49.817 8.381,-91.554003 9.456,0.865 -7.552,82.492003 2.66,1.026 -3.61,9.358 -3.812,41.641 h 195.593 l -10.854,-134.745003 9.464,-0.763 6.402,79.469003 0.004,-0.001 z m -230.0455,8.39 c 2.376,0 4.302,1.926 4.302,4.302 0,2.376 -1.926,4.302 -4.302,4.302 -2.376,0 -4.302,-1.926 -4.302,-4.302 0,-2.376 1.926,-4.302 4.302,-4.302 z m 14.708,0 c 2.376,0 4.302,1.926 4.302,4.302 0,2.376 -1.926,4.302 -4.302,4.302 -2.376,0 -4.302,-1.926 -4.302,-4.302 0,-2.376 1.926,-4.302 4.302,-4.302 z m 14.2446,0 c 2.376,0 4.302,1.926 4.302,4.302 0,2.376 -1.926,4.302 -4.302,4.302 -2.376,0 -4.302,-1.926 -4.302,-4.302 0,-2.376 1.926,-4.302 4.302,-4.302 z"
       fill="#000000"
       id="path3" />
    <path
       d="m 36.0217,287.74812 c 0.739,-0.855 1.128,-1.979 1.128,-3.374 0,-1.396 -0.389,-2.475 -1.128,-3.33 -0.778,-0.855 -1.868,-1.26 -3.268,-1.26 h -6.847 v 9.223 h 6.847 c 1.4,0 2.49,-0.405 3.268,-1.259 z m -3.268,-13.497 c 2.956,0 5.291,0.9 7.041,2.744 1.751,1.844 2.607,4.318 2.607,7.379 0,3.103 -0.856,5.533 -2.567,7.377 -1.751,1.846 -4.085,2.79 -7.081,2.79 h -6.847 v 12.414 h -5.291 v -32.704 z m 28.5444,20.0565 v -9.54 h 5.698 v 21.54 h -5.698 v -1.942 c -1.727,1.726 -3.971,2.589 -6.777,2.589 -2.59,0 -4.662,-0.863 -6.259,-2.546 -1.597,-1.683 -2.374,-3.842 -2.374,-6.518 v -13.123 h 5.698 v 11.914 c 0,1.511 0.388,2.763 1.208,3.67 0.777,0.906 1.813,1.381 3.151,1.381 3.583,0 5.353,-2.461 5.353,-7.425 z m 27.9262,5.9141 c 1.122,-1.166 1.683,-2.72 1.683,-4.662 0,-1.942 -0.561,-3.54 -1.683,-4.705 -1.166,-1.166 -2.59,-1.77 -4.36,-1.77 -1.597,0 -3.021,0.604 -4.273,1.813 -1.252,1.209 -1.856,2.762 -1.856,4.662 0,1.899 0.604,3.454 1.856,4.618 1.252,1.21 2.676,1.814 4.273,1.814 1.77,0 3.194,-0.604 4.36,-1.77 z m -3.367,-16.101 c 2.806,0 5.309,1.08 7.425,3.238 2.115,2.201 3.15,4.92 3.15,8.201 0,3.28 -1.035,6 -3.15,8.158 -2.116,2.159 -4.576,3.237 -7.425,3.237 -2.806,0 -5.18,-0.777 -7.122,-2.33 v 11.959 h -5.698 v -31.816 h 5.698 v 1.727 c 1.899,-1.597 4.273,-2.374 7.122,-2.374 z m 31.0775,16.101 c 1.122,-1.166 1.683,-2.72 1.683,-4.662 0,-1.942 -0.561,-3.54 -1.683,-4.705 -1.166,-1.166 -2.59,-1.77 -4.36,-1.77 -1.597,0 -3.021,0.604 -4.273,1.813 -1.252,1.209 -1.857,2.762 -1.857,4.662 0,1.899 0.605,3.454 1.857,4.618 1.252,1.21 2.676,1.814 4.273,1.814 1.77,0 3.194,-0.604 4.36,-1.77 z m -3.368,-16.101 c 2.806,0 5.31,1.08 7.426,3.238 2.114,2.201 3.15,4.92 3.15,8.201 0,3.28 -1.036,6 -3.15,8.158 -2.116,2.159 -4.576,3.237 -7.426,3.237 -2.805,0 -5.179,-0.777 -7.122,-2.33 v 11.959 h -5.697 v -31.816 h 5.697 v 1.727 c 1.9,-1.597 4.274,-2.374 7.122,-2.374 z m 18.9915,8.935 h 10.403 c -0.345,-1.338 -0.993,-2.33 -1.899,-2.979 -0.907,-0.647 -1.985,-0.992 -3.195,-0.992 -1.164,0 -2.287,0.345 -3.28,1.036 -1.036,0.691 -1.727,1.683 -2.029,2.935 z m 5.309,-8.935 c 2.936,0 5.483,1.036 7.598,3.065 2.115,2.072 3.194,4.704 3.324,7.942 v 1.943 h -16.403 c 0.302,1.51 0.949,2.718 1.943,3.626 0.992,0.906 2.114,1.38 3.452,1.38 2.461,0 4.231,-0.949 5.353,-2.848 l 5.094,1.079 c -0.907,2.202 -2.288,3.843 -4.101,4.965 -1.813,1.122 -3.928,1.682 -6.346,1.682 -3.108,0 -5.741,-1.078 -7.856,-3.193 -2.115,-2.115 -3.195,-4.878 -3.195,-8.202 0,-3.323 1.08,-6.086 3.238,-8.245 2.115,-2.114 4.749,-3.194 7.899,-3.194 z m 26.6324,17.5258 c 1.079,0 2.288,-0.346 3.583,-1.036 l 1.64,4.748 c -1.986,1.079 -3.842,1.597 -5.612,1.597 -2.633,0 -4.705,-0.734 -6.216,-2.159 -1.51,-1.423 -2.244,-3.539 -2.244,-6.431 v -8.936 h -4.619 v -4.662 h 4.619 v -6.517 h 5.698 v 6.517 h 7.036 v 4.662 h -7.036 v 8.504 c 0,2.461 1.036,3.713 3.151,3.713 z m 11.9546,-8.5908 h 10.403 c -0.345,-1.338 -0.993,-2.33 -1.899,-2.979 -0.907,-0.647 -1.985,-0.992 -3.195,-0.992 -1.164,0 -2.287,0.345 -3.28,1.036 -1.036,0.691 -1.727,1.683 -2.029,2.935 z m 5.309,-8.935 c 2.936,0 5.483,1.036 7.598,3.065 2.115,2.072 3.194,4.704 3.324,7.942 v 1.943 h -16.403 c 0.302,1.51 0.949,2.718 1.943,3.626 0.992,0.906 2.114,1.38 3.452,1.38 2.461,0 4.231,-0.949 5.353,-2.848 l 5.093,1.079 c -0.906,2.202 -2.287,3.843 -4.1,4.965 -1.813,1.122 -3.928,1.682 -6.346,1.682 -3.108,0 -5.741,-1.078 -7.856,-3.193 -2.115,-2.115 -3.195,-4.878 -3.195,-8.202 0,-3.323 1.08,-6.086 3.238,-8.245 2.115,-2.114 4.749,-3.194 7.899,-3.194 z m 20.2862,8.935 h 10.403 c -0.345,-1.338 -0.993,-2.33 -1.899,-2.979 -0.907,-0.647 -1.985,-0.992 -3.195,-0.992 -1.164,0 -2.287,0.345 -3.28,1.036 -1.036,0.691 -1.727,1.683 -2.029,2.935 z m 5.309,-8.935 c 2.936,0 5.483,1.036 7.598,3.065 2.115,2.072 3.194,4.704 3.324,7.942 v 1.943 h -16.403 c 0.302,1.51 0.949,2.718 1.943,3.626 0.992,0.906 2.114,1.38 3.452,1.38 2.461,0 4.231,-0.949 5.353,-2.848 l 5.094,1.079 c -0.907,2.202 -2.288,3.843 -4.101,4.965 -1.813,1.122 -3.928,1.682 -6.346,1.682 -3.108,0 -5.741,-1.078 -7.856,-3.193 -2.115,-2.115 -3.195,-4.878 -3.195,-8.202 0,-3.323 1.08,-6.086 3.238,-8.245 2.115,-2.114 4.749,-3.194 7.899,-3.194 z m 28.6612,0.3451 c 0.648,0 1.166,0.043 1.512,0.172 l -0.303,5.483 h -1.251 c -5.137,0 -7.685,3.065 -7.685,9.238 v 6.949 h -5.697 v -21.54 h 5.697 v 3.928 c 1.943,-2.806 4.533,-4.23 7.727,-4.23 z"
       fill="#000000"
       id="path4" />
    <polygon
       fill="#00d8a2"
       points="241.8364,18.154217 212.1554,4.3732167 128.0594,46.244217 42.5494,4.3732167 14.9884,19.214217 14.9884,31.934217 81.7704,68.505217 14.9884,102.42722 14.9884,117.79722 43.6094,132.63822 128.4124,89.176217 211.0954,132.63822 241.8364,117.79722 241.8364,102.95722 170.8134,69.035217 241.8364,32.464217 "
       id="polygon4" />
    <path
       d="m 214.9494,126.58452 v -6.392 l 23.14,-11.991 v 7.18 z m -198.099,-18.551 22.36,12.836 v 5.11 l -22.36,-11.312 z m 114.533,-26.994003 76.919,38.005003 v 7.642 l -76.919,-39.405003 z m -85.526,39.117003 78.879,-39.109003 v 6.232 l -78.879,39.908003 z m 55.852,-63.905003 -79.822,-38.538 20.674,-10.5070003 85.498,44.3230003 84.067,-44.3040003 21.404,10.9630003 -77.841,39.174 c -3.112,1.566 -3.107,6.011 0.008,7.57 l 77.038,38.557003 -19.968,10.347 -84.708,-43.403003 -86.206,44.289003 -19.689,-11.303 79.589,-39.562003 c 3.153,-1.567 3.127,-6.075 -0.044,-7.606 z m -83.865,-25.481 v -7.014 l 74.446,37.142 -7.526,3.007 z m 152.654,33.548 c -0.102,-0.062 -7.13,-3.378 -7.13,-3.378 l 74.721,-37.605 v 7.045 z m 7.479,3.683 65.675,-32.976 c 0.665,-0.334 1.085,-1.015 1.085,-1.759 v -15.603 c 0,-0.739 -0.414,-1.415 -1.071,-1.752 L 213.0334,0.22151674 c -0.561,-0.287 -1.226,-0.288 -1.788,-0.003 L 128.9424,41.982517 c -0.555,0.282 -1.211,0.285 -1.769,0.006 L 43.4204,0.20651674 c -0.557,-0.278 -1.214,-0.275 -1.77,0.007 L 11.2794,15.647517 c -0.661,0.336 -1.077,1.014 -1.077,1.755 v 15.855 c 0,0.749 0.425,1.433 1.097,1.765 l 65.951,32.584 -65.646,32.595003 c -0.657,0.327 -1.079,0.992 -1.092,1.727 l -0.287,15.591 c -0.014,0.755 0.406,1.451 1.079,1.792 l 31.537,15.956 c 0.557,0.281 1.214,0.282 1.772,0.002 l 82.558,-41.455003 c 0.558,-0.281 1.217,-0.279 1.775,0.004 l 81.529,41.454003 c 0.548,0.278 1.195,0.285 1.749,0.017 l 31.402,-15.203 c 0.679,-0.329 1.111,-1.017 1.111,-1.771 v -16.29 c 0,-0.751 -0.427,-1.436 -1.101,-1.767 z"
       fill="#000000"
       id="path5" />
  </g>
</svg>
