<?xml version="1.0" encoding="UTF-8" standalone="no"?>
<svg
   version="1.1"
   width="31.999994"
   height="12.800003"
   viewBox="0 0 31.999994 12.799916"
   enable-background="new 0 0 1952.00 734.93"
   xml:space="preserve"
   id="svg3"
   sodipodi:docname="pwa.svg"
   inkscape:version="1.3.2 (091e20e, 2023-11-25)"
   xmlns:inkscape="http://www.inkscape.org/namespaces/inkscape"
   xmlns:sodipodi="http://sodipodi.sourceforge.net/DTD/sodipodi-0.dtd"
   xmlns="http://www.w3.org/2000/svg"
   xmlns:svg="http://www.w3.org/2000/svg"><defs
   id="defs3" /><sodipodi:namedview
   id="namedview3"
   pagecolor="#505050"
   bordercolor="#ffffff"
   borderopacity="1"
   inkscape:showpageshadow="0"
   inkscape:pageopacity="0"
   inkscape:pagecheckerboard="1"
   inkscape:deskcolor="#505050"
   inkscape:zoom="4.1461475"
   inkscape:cx="26.651247"
   inkscape:cy="-17.968488"
   inkscape:window-width="1392"
   inkscape:window-height="950"
   inkscape:window-x="0"
   inkscape:window-y="25"
   inkscape:window-maximized="0"
   inkscape:current-layer="svg3" />
	<g
   id="g3"
   transform="matrix(0.01639344,0,0,0.01741652,6.2536056e-8,-1.1607572e-4)">
		<path
   fill="#3d3d3d"
   fill-opacity="1"
   stroke-width="0.2"
   stroke-linejoin="round"
   d="m 1436.62,603.304 56.39,-142.599 h 162.82 L 1578.56,244.39 1675.2,5.28336e-4 1952,734.933 h -204.13 l -47.3,-131.629 z"
   id="path1" />
		<path
   fill="#5a0fc8"
   fill-opacity="1"
   stroke-width="0.2"
   stroke-linejoin="round"
   d="M 1262.47,734.935 1558.79,0.00156593 1362.34,0.0025425 1159.64,474.933 1015.5,0.00351906 H 864.499 L 709.731,474.933 600.585,258.517 501.812,562.819 602.096,734.935 h 193.331 l 139.857,-425.91 133.346,425.91 z"
   id="path2" />
		<path
   fill="#3d3d3d"
   fill-opacity="1"
   stroke-width="0.2"
   stroke-linejoin="round"
   d="m 186.476,482.643 h 121.003 c 36.654,0 69.293,-4.091 97.917,-12.273 l 31.293,-96.408 87.459,-269.446 C 517.484,93.9535 509.876,83.9667 501.324,74.5569 456.419,24.852 390.719,4.06265e-4 304.222,4.06265e-4 H -3.8147e-6 V 734.933 H 186.476 Z M 346.642,169.079 c 17.54,17.653 26.309,41.276 26.309,70.871 0,29.822 -7.713,53.474 -23.138,70.956 -16.91,19.425 -48.047,29.137 -93.409,29.137 H 186.476 V 142.598 h 70.442 c 42.277,0 72.185,8.827 89.724,26.481 z"
   id="path3" />
	</g>
</svg>
