<?xml version="1.0" encoding="UTF-8" standalone="no"?>
<svg
   width="31.99999"
   height="31.999994"
   viewBox="0 0 3.276799 3.2767994"
   preserveAspectRatio="xMinYMin"
   version="1.1"
   id="svg3"
   sodipodi:docname="socket-io.svg"
   inkscape:version="1.3.2 (091e20e, 2023-11-25)"
   xmlns:inkscape="http://www.inkscape.org/namespaces/inkscape"
   xmlns:sodipodi="http://sodipodi.sourceforge.net/DTD/sodipodi-0.dtd"
   xmlns="http://www.w3.org/2000/svg"
   xmlns:svg="http://www.w3.org/2000/svg">
  <defs
     id="defs3" />
  <sodipodi:namedview
     id="namedview3"
     pagecolor="#505050"
     bordercolor="#ffffff"
     borderopacity="1"
     inkscape:showpageshadow="0"
     inkscape:pageopacity="0"
     inkscape:pagecheckerboard="1"
     inkscape:deskcolor="#505050"
     inkscape:zoom="0.18651766"
     inkscape:cx="479.84732"
     inkscape:cy="1788.0344"
     inkscape:window-width="1392"
     inkscape:window-height="950"
     inkscape:window-x="0"
     inkscape:window-y="25"
     inkscape:window-maximized="0"
     inkscape:current-layer="svg3" />
  <g
     id="g3"
     transform="matrix(0.01313931,0,0,0.01315283,-0.04378731,-0.04536996)">
    <path
       d="m 96.447,7.382 c 32.267,-8.275 67.929,-3.453 96.386,14.11 35.84,21.433 59.238,61.976 59.833,103.71 1.31,42.15 -20.659,83.944 -55.963,106.865 C 157.41,258.5 103.055,259.513 62.928,234.389 22.028,209.979 -1.846,160.744 4.287,113.473 9.227,63.523 47.807,19.468 96.447,7.383 Z"
       fill="#010101"
       id="path1" />
    <path
       d="m 91.505,27.803 c 60.964,-24.41 135.74,20.658 142.05,86.028 9.824,58.82 -38.995,118.593 -98.59,120.32 C 78.288,239.807 23.516,191.761 21.909,134.847 17.682,88.767 48.045,43.044 91.505,27.803 Z"
       fill="#ffffff"
       id="path2" />
    <path
       d="m 97.637,121.69 c 27.327,-22.326 54.058,-45.426 81.98,-67.097 -14.646,22.505 -29.708,44.711 -44.354,67.215 -12.562,0.06 -25.123,0.06 -37.626,-0.119 z m 23.1,12.442 c 12.621,0 25.183,0 37.745,0.179 -27.505,22.206 -54.117,45.484 -82.099,67.096 14.646,-22.505 29.708,-44.77 44.354,-67.275 z"
       fill="#010101"
       id="path3" />
  </g>
</svg>
