<?xml version="1.0" encoding="UTF-8" standalone="no"?>
<svg
   width="32"
   height="24"
   viewBox="0 0 32 24"
   version="1.1"
   id="svg9"
   sodipodi:docname="webcomponents.svg"
   inkscape:version="1.3.2 (091e20e, 2023-11-25)"
   xmlns:inkscape="http://www.inkscape.org/namespaces/inkscape"
   xmlns:sodipodi="http://sodipodi.sourceforge.net/DTD/sodipodi-0.dtd"
   xmlns="http://www.w3.org/2000/svg"
   xmlns:svg="http://www.w3.org/2000/svg">
  <sodipodi:namedview
     id="namedview9"
     pagecolor="#505050"
     bordercolor="#ffffff"
     borderopacity="1"
     inkscape:showpageshadow="0"
     inkscape:pageopacity="0"
     inkscape:pagecheckerboard="1"
     inkscape:deskcolor="#505050"
     inkscape:zoom="4.8136646"
     inkscape:cx="70.943871"
     inkscape:cy="72.398064"
     inkscape:window-width="1392"
     inkscape:window-height="950"
     inkscape:window-x="0"
     inkscape:window-y="25"
     inkscape:window-maximized="0"
     inkscape:current-layer="svg9" />
  <defs
     id="defs4">
    <linearGradient
       x1="48.85815"
       y1="40.017887"
       y2="40.017887"
       id="a"
       gradientTransform="scale(1.250559,0.79964241)"
       x2="127.14314"
       gradientUnits="userSpaceOnUse">
      <stop
         stop-color="#2A3B8F"
         offset="0%"
         id="stop1" />
      <stop
         stop-color="#29ABE2"
         offset="100%"
         id="stop2" />
    </linearGradient>
    <linearGradient
       x1="126.8751"
       y1="124.81882"
       x2="48.67535"
       y2="124.81882"
       id="c"
       gradientTransform="scale(1.253201,0.79795657)"
       gradientUnits="userSpaceOnUse">
      <stop
         stop-color="#B4D44E"
         offset="0%"
         id="stop3" />
      <stop
         stop-color="#E7F716"
         offset="100%"
         id="stop4" />
    </linearGradient>
  </defs>
  <g
     fill="none"
     fill-rule="evenodd"
     id="g9"
     transform="matrix(0.19975031,0,0,0.18390805,-0.07990012,-0.12873563)">
    <path
       fill="#166da5"
       d="M 160.6,65.9 143.2,95.2 118.8,65.5 143.2,36.6 Z"
       id="path4" />
    <path
       fill="#8fdb69"
       d="M 141.3,100.2 114.8,68.5 98.9,95.1 123.6,131.2 Z"
       id="path5" />
    <path
       fill="#166da5"
       d="M 141,31.4 114.8,63.2 98.9,36.6 123.6,0.9 Z"
       id="path6" />
    <path
       fill="url(#a)"
       opacity="0.95"
       d="M 61.1,31.4 H 141 L 123.4,0.7 H 78.7 Z m 53.7,31.9 H 159 L 143.1,36.5 H 98.8"
       id="path7"
       style="fill:url(#a)" />
    <path
       fill="url(#c)"
       opacity="0.95"
       d="M 141.3,100.3 H 61 l 17.6,30.5 h 45 z M 114.8,68.4 H 159 L 143.1,95.2 H 98.8"
       id="path8"
       style="fill:url(#c)" />
    <path
       fill="#010101"
       d="M 78.6,130.8 41,65.8 79.1,0.8 H 37.9 l -37.5,65 37.5,65 z"
       id="path9" />
  </g>
</svg>
